ISO-10303-21;
HEADER;
FILE_DESCRIPTION(('FreeCAD Model'),'2;1');
FILE_NAME('Open CASCADE Shape Model','2026-07-07T16:45:58',('Author'),(
    ''),'Open CASCADE STEP processor 7.8','FreeCAD','Unknown');
FILE_SCHEMA(('AUTOMOTIVE_DESIGN { 1 0 10303 214 1 1 1 1 }'));
ENDSEC;
DATA;
#1 = APPLICATION_PROTOCOL_DEFINITION('international standard',
  'automotive_design',2000,#2);
#2 = APPLICATION_CONTEXT(
  'core data for automotive mechanical design processes');
#3 = SHAPE_DEFINITION_REPRESENTATION(#4,#10);
#4 = PRODUCT_DEFINITION_SHAPE('','',#5);
#5 = PRODUCT_DEFINITION('design','',#6,#9);
#6 = PRODUCT_DEFINITION_FORMATION('','',#7);
#7 = PRODUCT('Body','Body','',(#8));
#8 = PRODUCT_CONTEXT('',#2,'mechanical');
#9 = PRODUCT_DEFINITION_CONTEXT('part definition',#2,'design');
#10 = ADVANCED_BREP_SHAPE_REPRESENTATION('',(#11,#15),#503);
#11 = AXIS2_PLACEMENT_3D('',#12,#13,#14);
#12 = CARTESIAN_POINT('',(0.,0.,0.));
#13 = DIRECTION('',(0.,0.,1.));
#14 = DIRECTION('',(1.,0.,-0.));
#15 = MANIFOLD_SOLID_BREP('',#16);
#16 = CLOSED_SHELL('',(#17,#45,#71,#97,#122,#146,#171,#197,#222,#242,
    #268,#294,#314,#339,#365,#390,#414,#439,#465,#491));
#17 = ADVANCED_FACE('',(#18,#29),#40,.F.);
#18 = FACE_BOUND('',#19,.F.);
#19 = EDGE_LOOP('',(#20));
#20 = ORIENTED_EDGE('',*,*,#21,.T.);
#21 = EDGE_CURVE('',#22,#22,#24,.T.);
#22 = VERTEX_POINT('',#23);
#23 = CARTESIAN_POINT('',(1.25,2.3,0.));
#24 = CIRCLE('',#25,2.3);
#25 = AXIS2_PLACEMENT_3D('',#26,#27,#28);
#26 = CARTESIAN_POINT('',(1.25,0.,0.));
#27 = DIRECTION('',(1.,0.,0.));
#28 = DIRECTION('',(0.,1.,0.));
#29 = FACE_BOUND('',#30,.F.);
#30 = EDGE_LOOP('',(#31));
#31 = ORIENTED_EDGE('',*,*,#32,.F.);
#32 = EDGE_CURVE('',#33,#33,#35,.T.);
#33 = VERTEX_POINT('',#34);
#34 = CARTESIAN_POINT('',(1.25,2.45,0.));
#35 = CIRCLE('',#36,2.45);
#36 = AXIS2_PLACEMENT_3D('',#37,#38,#39);
#37 = CARTESIAN_POINT('',(1.25,0.,0.));
#38 = DIRECTION('',(1.,0.,0.));
#39 = DIRECTION('',(0.,1.,0.));
#40 = PLANE('',#41);
#41 = AXIS2_PLACEMENT_3D('',#42,#43,#44);
#42 = CARTESIAN_POINT('',(1.25,0.,0.));
#43 = DIRECTION('',(-1.,-0.,-0.));
#44 = DIRECTION('',(-0.,-1.,-0.));
#45 = ADVANCED_FACE('',(#46),#66,.T.);
#46 = FACE_BOUND('',#47,.T.);
#47 = EDGE_LOOP('',(#48,#57,#58,#59));
#48 = ORIENTED_EDGE('',*,*,#49,.F.);
#49 = EDGE_CURVE('',#22,#50,#52,.T.);
#50 = VERTEX_POINT('',#51);
#51 = CARTESIAN_POINT('',(1.2,2.25,0.));
#52 = CIRCLE('',#53,5.E-02);
#53 = AXIS2_PLACEMENT_3D('',#54,#55,#56);
#54 = CARTESIAN_POINT('',(1.2,2.3,0.));
#55 = DIRECTION('',(0.,0.,-1.));
#56 = DIRECTION('',(0.,1.,0.));
#57 = ORIENTED_EDGE('',*,*,#21,.T.);
#58 = ORIENTED_EDGE('',*,*,#49,.T.);
#59 = ORIENTED_EDGE('',*,*,#60,.F.);
#60 = EDGE_CURVE('',#50,#50,#61,.T.);
#61 = CIRCLE('',#62,2.25);
#62 = AXIS2_PLACEMENT_3D('',#63,#64,#65);
#63 = CARTESIAN_POINT('',(1.2,0.,0.));
#64 = DIRECTION('',(1.,0.,0.));
#65 = DIRECTION('',(0.,1.,0.));
#66 = TOROIDAL_SURFACE('',#67,2.3,5.E-02);
#67 = AXIS2_PLACEMENT_3D('',#68,#69,#70);
#68 = CARTESIAN_POINT('',(1.2,0.,0.));
#69 = DIRECTION('',(1.,0.,0.));
#70 = DIRECTION('',(0.,1.,0.));
#71 = ADVANCED_FACE('',(#72),#92,.T.);
#72 = FACE_BOUND('',#73,.F.);
#73 = EDGE_LOOP('',(#74,#83,#84,#85));
#74 = ORIENTED_EDGE('',*,*,#75,.F.);
#75 = EDGE_CURVE('',#33,#76,#78,.T.);
#76 = VERTEX_POINT('',#77);
#77 = CARTESIAN_POINT('',(1.2,2.5,0.));
#78 = CIRCLE('',#79,5.E-02);
#79 = AXIS2_PLACEMENT_3D('',#80,#81,#82);
#80 = CARTESIAN_POINT('',(1.2,2.45,0.));
#81 = DIRECTION('',(0.,-0.,1.));
#82 = DIRECTION('',(0.,1.,0.));
#83 = ORIENTED_EDGE('',*,*,#32,.F.);
#84 = ORIENTED_EDGE('',*,*,#75,.T.);
#85 = ORIENTED_EDGE('',*,*,#86,.T.);
#86 = EDGE_CURVE('',#76,#76,#87,.T.);
#87 = CIRCLE('',#88,2.5);
#88 = AXIS2_PLACEMENT_3D('',#89,#90,#91);
#89 = CARTESIAN_POINT('',(1.2,0.,0.));
#90 = DIRECTION('',(1.,0.,0.));
#91 = DIRECTION('',(0.,1.,0.));
#92 = TOROIDAL_SURFACE('',#93,2.45,5.E-02);
#93 = AXIS2_PLACEMENT_3D('',#94,#95,#96);
#94 = CARTESIAN_POINT('',(1.2,0.,0.));
#95 = DIRECTION('',(-1.,0.,0.));
#96 = DIRECTION('',(0.,1.,0.));
#97 = ADVANCED_FACE('',(#98),#117,.F.);
#98 = FACE_BOUND('',#99,.F.);
#99 = EDGE_LOOP('',(#100,#108,#115,#116));
#100 = ORIENTED_EDGE('',*,*,#101,.F.);
#101 = EDGE_CURVE('',#102,#50,#104,.T.);
#102 = VERTEX_POINT('',#103);
#103 = CARTESIAN_POINT('',(0.95,2.25,0.));
#104 = LINE('',#105,#106);
#105 = CARTESIAN_POINT('',(0.95,2.25,0.));
#106 = VECTOR('',#107,1.);
#107 = DIRECTION('',(1.,0.,0.));
#108 = ORIENTED_EDGE('',*,*,#109,.T.);
#109 = EDGE_CURVE('',#102,#102,#110,.T.);
#110 = CIRCLE('',#111,2.25);
#111 = AXIS2_PLACEMENT_3D('',#112,#113,#114);
#112 = CARTESIAN_POINT('',(0.95,0.,0.));
#113 = DIRECTION('',(1.,0.,0.));
#114 = DIRECTION('',(0.,1.,0.));
#115 = ORIENTED_EDGE('',*,*,#101,.T.);
#116 = ORIENTED_EDGE('',*,*,#60,.F.);
#117 = CYLINDRICAL_SURFACE('',#118,2.25);
#118 = AXIS2_PLACEMENT_3D('',#119,#120,#121);
#119 = CARTESIAN_POINT('',(0.95,0.,0.));
#120 = DIRECTION('',(1.,0.,0.));
#121 = DIRECTION('',(0.,1.,0.));
#122 = ADVANCED_FACE('',(#123),#141,.T.);
#123 = FACE_BOUND('',#124,.T.);
#124 = EDGE_LOOP('',(#125,#132,#139,#140));
#125 = ORIENTED_EDGE('',*,*,#126,.F.);
#126 = EDGE_CURVE('',#127,#76,#129,.T.);
#127 = VERTEX_POINT('',#128);
#128 = CARTESIAN_POINT('',(-1.2,2.5,0.));
#129 = B_SPLINE_CURVE_WITH_KNOTS('',1,(#130,#131),.UNSPECIFIED.,.F.,.F.,
  (2,2),(0.,2.5),.PIECEWISE_BEZIER_KNOTS.);
#130 = CARTESIAN_POINT('',(-1.25,2.5,-6.123233995737E-16));
#131 = CARTESIAN_POINT('',(1.25,2.5,-6.123233995737E-16));
#132 = ORIENTED_EDGE('',*,*,#133,.T.);
#133 = EDGE_CURVE('',#127,#127,#134,.T.);
#134 = CIRCLE('',#135,2.5);
#135 = AXIS2_PLACEMENT_3D('',#136,#137,#138);
#136 = CARTESIAN_POINT('',(-1.2,0.,0.));
#137 = DIRECTION('',(1.,0.,0.));
#138 = DIRECTION('',(0.,1.,0.));
#139 = ORIENTED_EDGE('',*,*,#126,.T.);
#140 = ORIENTED_EDGE('',*,*,#86,.F.);
#141 = CYLINDRICAL_SURFACE('',#142,2.5);
#142 = AXIS2_PLACEMENT_3D('',#143,#144,#145);
#143 = CARTESIAN_POINT('',(-1.25,0.,0.));
#144 = DIRECTION('',(1.,0.,0.));
#145 = DIRECTION('',(0.,1.,0.));
#146 = ADVANCED_FACE('',(#147),#166,.T.);
#147 = FACE_BOUND('',#148,.F.);
#148 = EDGE_LOOP('',(#149,#158,#164,#165));
#149 = ORIENTED_EDGE('',*,*,#150,.T.);
#150 = EDGE_CURVE('',#151,#151,#153,.T.);
#151 = VERTEX_POINT('',#152);
#152 = CARTESIAN_POINT('',(1.,1.25,0.));
#153 = CIRCLE('',#154,1.25);
#154 = AXIS2_PLACEMENT_3D('',#155,#156,#157);
#155 = CARTESIAN_POINT('',(1.,0.,0.));
#156 = DIRECTION('',(1.,0.,0.));
#157 = DIRECTION('',(0.,1.,0.));
#158 = ORIENTED_EDGE('',*,*,#159,.T.);
#159 = EDGE_CURVE('',#151,#102,#160,.T.);
#160 = LINE('',#161,#162);
#161 = CARTESIAN_POINT('',(1.,1.25,0.));
#162 = VECTOR('',#163,1.);
#163 = DIRECTION('',(-4.993761694389E-02,0.998752338878,0.));
#164 = ORIENTED_EDGE('',*,*,#109,.F.);
#165 = ORIENTED_EDGE('',*,*,#159,.F.);
#166 = CONICAL_SURFACE('',#167,1.25,1.520837931073);
#167 = AXIS2_PLACEMENT_3D('',#168,#169,#170);
#168 = CARTESIAN_POINT('',(1.,0.,0.));
#169 = DIRECTION('',(-1.,-0.,-0.));
#170 = DIRECTION('',(0.,1.,0.));
#171 = ADVANCED_FACE('',(#172),#192,.T.);
#172 = FACE_BOUND('',#173,.T.);
#173 = EDGE_LOOP('',(#174,#183,#190,#191));
#174 = ORIENTED_EDGE('',*,*,#175,.F.);
#175 = EDGE_CURVE('',#176,#127,#178,.T.);
#176 = VERTEX_POINT('',#177);
#177 = CARTESIAN_POINT('',(-1.25,2.45,0.));
#178 = CIRCLE('',#179,5.E-02);
#179 = AXIS2_PLACEMENT_3D('',#180,#181,#182);
#180 = CARTESIAN_POINT('',(-1.2,2.45,0.));
#181 = DIRECTION('',(0.,0.,-1.));
#182 = DIRECTION('',(0.,1.,0.));
#183 = ORIENTED_EDGE('',*,*,#184,.T.);
#184 = EDGE_CURVE('',#176,#176,#185,.T.);
#185 = CIRCLE('',#186,2.45);
#186 = AXIS2_PLACEMENT_3D('',#187,#188,#189);
#187 = CARTESIAN_POINT('',(-1.25,0.,0.));
#188 = DIRECTION('',(1.,0.,0.));
#189 = DIRECTION('',(0.,1.,0.));
#190 = ORIENTED_EDGE('',*,*,#175,.T.);
#191 = ORIENTED_EDGE('',*,*,#133,.F.);
#192 = TOROIDAL_SURFACE('',#193,2.45,5.E-02);
#193 = AXIS2_PLACEMENT_3D('',#194,#195,#196);
#194 = CARTESIAN_POINT('',(-1.2,0.,0.));
#195 = DIRECTION('',(1.,0.,0.));
#196 = DIRECTION('',(0.,1.,0.));
#197 = ADVANCED_FACE('',(#198),#217,.T.);
#198 = FACE_BOUND('',#199,.F.);
#199 = EDGE_LOOP('',(#200,#208,#215,#216));
#200 = ORIENTED_EDGE('',*,*,#201,.F.);
#201 = EDGE_CURVE('',#202,#151,#204,.T.);
#202 = VERTEX_POINT('',#203);
#203 = CARTESIAN_POINT('',(1.2,1.25,0.));
#204 = LINE('',#205,#206);
#205 = CARTESIAN_POINT('',(1.25,1.25,0.));
#206 = VECTOR('',#207,1.);
#207 = DIRECTION('',(-1.,0.,0.));
#208 = ORIENTED_EDGE('',*,*,#209,.T.);
#209 = EDGE_CURVE('',#202,#202,#210,.T.);
#210 = CIRCLE('',#211,1.25);
#211 = AXIS2_PLACEMENT_3D('',#212,#213,#214);
#212 = CARTESIAN_POINT('',(1.2,0.,0.));
#213 = DIRECTION('',(1.,0.,0.));
#214 = DIRECTION('',(0.,1.,0.));
#215 = ORIENTED_EDGE('',*,*,#201,.T.);
#216 = ORIENTED_EDGE('',*,*,#150,.F.);
#217 = CYLINDRICAL_SURFACE('',#218,1.25);
#218 = AXIS2_PLACEMENT_3D('',#219,#220,#221);
#219 = CARTESIAN_POINT('',(1.25,0.,0.));
#220 = DIRECTION('',(-1.,-0.,-0.));
#221 = DIRECTION('',(0.,1.,0.));
#222 = ADVANCED_FACE('',(#223,#234),#237,.F.);
#223 = FACE_BOUND('',#224,.T.);
#224 = EDGE_LOOP('',(#225));
#225 = ORIENTED_EDGE('',*,*,#226,.T.);
#226 = EDGE_CURVE('',#227,#227,#229,.T.);
#227 = VERTEX_POINT('',#228);
#228 = CARTESIAN_POINT('',(-1.25,2.3,0.));
#229 = CIRCLE('',#230,2.3);
#230 = AXIS2_PLACEMENT_3D('',#231,#232,#233);
#231 = CARTESIAN_POINT('',(-1.25,0.,0.));
#232 = DIRECTION('',(1.,0.,0.));
#233 = DIRECTION('',(0.,1.,0.));
#234 = FACE_BOUND('',#235,.T.);
#235 = EDGE_LOOP('',(#236));
#236 = ORIENTED_EDGE('',*,*,#184,.F.);
#237 = PLANE('',#238);
#238 = AXIS2_PLACEMENT_3D('',#239,#240,#241);
#239 = CARTESIAN_POINT('',(-1.25,0.,0.));
#240 = DIRECTION('',(1.,0.,0.));
#241 = DIRECTION('',(0.,1.,0.));
#242 = ADVANCED_FACE('',(#243),#263,.T.);
#243 = FACE_BOUND('',#244,.T.);
#244 = EDGE_LOOP('',(#245,#254,#255,#256));
#245 = ORIENTED_EDGE('',*,*,#246,.F.);
#246 = EDGE_CURVE('',#202,#247,#249,.T.);
#247 = VERTEX_POINT('',#248);
#248 = CARTESIAN_POINT('',(1.25,1.2,0.));
#249 = CIRCLE('',#250,5.E-02);
#250 = AXIS2_PLACEMENT_3D('',#251,#252,#253);
#251 = CARTESIAN_POINT('',(1.2,1.2,0.));
#252 = DIRECTION('',(0.,0.,-1.));
#253 = DIRECTION('',(0.,1.,0.));
#254 = ORIENTED_EDGE('',*,*,#209,.T.);
#255 = ORIENTED_EDGE('',*,*,#246,.T.);
#256 = ORIENTED_EDGE('',*,*,#257,.F.);
#257 = EDGE_CURVE('',#247,#247,#258,.T.);
#258 = CIRCLE('',#259,1.2);
#259 = AXIS2_PLACEMENT_3D('',#260,#261,#262);
#260 = CARTESIAN_POINT('',(1.25,0.,0.));
#261 = DIRECTION('',(1.,0.,0.));
#262 = DIRECTION('',(0.,1.,0.));
#263 = TOROIDAL_SURFACE('',#264,1.2,5.E-02);
#264 = AXIS2_PLACEMENT_3D('',#265,#266,#267);
#265 = CARTESIAN_POINT('',(1.2,0.,0.));
#266 = DIRECTION('',(1.,0.,0.));
#267 = DIRECTION('',(0.,1.,0.));
#268 = ADVANCED_FACE('',(#269),#289,.T.);
#269 = FACE_BOUND('',#270,.T.);
#270 = EDGE_LOOP('',(#271,#280,#287,#288));
#271 = ORIENTED_EDGE('',*,*,#272,.F.);
#272 = EDGE_CURVE('',#273,#227,#275,.T.);
#273 = VERTEX_POINT('',#274);
#274 = CARTESIAN_POINT('',(-1.2,2.25,0.));
#275 = CIRCLE('',#276,5.E-02);
#276 = AXIS2_PLACEMENT_3D('',#277,#278,#279);
#277 = CARTESIAN_POINT('',(-1.2,2.3,0.));
#278 = DIRECTION('',(0.,0.,-1.));
#279 = DIRECTION('',(0.,1.,0.));
#280 = ORIENTED_EDGE('',*,*,#281,.T.);
#281 = EDGE_CURVE('',#273,#273,#282,.T.);
#282 = CIRCLE('',#283,2.25);
#283 = AXIS2_PLACEMENT_3D('',#284,#285,#286);
#284 = CARTESIAN_POINT('',(-1.2,0.,0.));
#285 = DIRECTION('',(1.,0.,0.));
#286 = DIRECTION('',(0.,1.,0.));
#287 = ORIENTED_EDGE('',*,*,#272,.T.);
#288 = ORIENTED_EDGE('',*,*,#226,.F.);
#289 = TOROIDAL_SURFACE('',#290,2.3,5.E-02);
#290 = AXIS2_PLACEMENT_3D('',#291,#292,#293);
#291 = CARTESIAN_POINT('',(-1.2,0.,0.));
#292 = DIRECTION('',(1.,0.,0.));
#293 = DIRECTION('',(0.,1.,0.));
#294 = ADVANCED_FACE('',(#295,#306),#309,.T.);
#295 = FACE_BOUND('',#296,.F.);
#296 = EDGE_LOOP('',(#297));
#297 = ORIENTED_EDGE('',*,*,#298,.T.);
#298 = EDGE_CURVE('',#299,#299,#301,.T.);
#299 = VERTEX_POINT('',#300);
#300 = CARTESIAN_POINT('',(1.25,1.05,0.));
#301 = CIRCLE('',#302,1.05);
#302 = AXIS2_PLACEMENT_3D('',#303,#304,#305);
#303 = CARTESIAN_POINT('',(1.25,0.,0.));
#304 = DIRECTION('',(1.,0.,0.));
#305 = DIRECTION('',(0.,1.,0.));
#306 = FACE_BOUND('',#307,.F.);
#307 = EDGE_LOOP('',(#308));
#308 = ORIENTED_EDGE('',*,*,#257,.F.);
#309 = PLANE('',#310);
#310 = AXIS2_PLACEMENT_3D('',#311,#312,#313);
#311 = CARTESIAN_POINT('',(1.25,0.,0.));
#312 = DIRECTION('',(1.,0.,0.));
#313 = DIRECTION('',(0.,1.,0.));
#314 = ADVANCED_FACE('',(#315),#334,.F.);
#315 = FACE_BOUND('',#316,.T.);
#316 = EDGE_LOOP('',(#317,#325,#332,#333));
#317 = ORIENTED_EDGE('',*,*,#318,.F.);
#318 = EDGE_CURVE('',#319,#273,#321,.T.);
#319 = VERTEX_POINT('',#320);
#320 = CARTESIAN_POINT('',(-0.95,2.25,0.));
#321 = LINE('',#322,#323);
#322 = CARTESIAN_POINT('',(-0.95,2.25,0.));
#323 = VECTOR('',#324,1.);
#324 = DIRECTION('',(-1.,0.,0.));
#325 = ORIENTED_EDGE('',*,*,#326,.T.);
#326 = EDGE_CURVE('',#319,#319,#327,.T.);
#327 = CIRCLE('',#328,2.25);
#328 = AXIS2_PLACEMENT_3D('',#329,#330,#331);
#329 = CARTESIAN_POINT('',(-0.95,0.,0.));
#330 = DIRECTION('',(1.,0.,0.));
#331 = DIRECTION('',(0.,1.,0.));
#332 = ORIENTED_EDGE('',*,*,#318,.T.);
#333 = ORIENTED_EDGE('',*,*,#281,.F.);
#334 = CYLINDRICAL_SURFACE('',#335,2.25);
#335 = AXIS2_PLACEMENT_3D('',#336,#337,#338);
#336 = CARTESIAN_POINT('',(-0.95,0.,0.));
#337 = DIRECTION('',(-1.,-0.,-0.));
#338 = DIRECTION('',(0.,1.,0.));
#339 = ADVANCED_FACE('',(#340),#360,.T.);
#340 = FACE_BOUND('',#341,.T.);
#341 = EDGE_LOOP('',(#342,#351,#352,#353));
#342 = ORIENTED_EDGE('',*,*,#343,.F.);
#343 = EDGE_CURVE('',#299,#344,#346,.T.);
#344 = VERTEX_POINT('',#345);
#345 = CARTESIAN_POINT('',(1.2,1.,0.));
#346 = CIRCLE('',#347,5.E-02);
#347 = AXIS2_PLACEMENT_3D('',#348,#349,#350);
#348 = CARTESIAN_POINT('',(1.2,1.05,0.));
#349 = DIRECTION('',(0.,0.,-1.));
#350 = DIRECTION('',(0.,1.,0.));
#351 = ORIENTED_EDGE('',*,*,#298,.T.);
#352 = ORIENTED_EDGE('',*,*,#343,.T.);
#353 = ORIENTED_EDGE('',*,*,#354,.F.);
#354 = EDGE_CURVE('',#344,#344,#355,.T.);
#355 = CIRCLE('',#356,1.);
#356 = AXIS2_PLACEMENT_3D('',#357,#358,#359);
#357 = CARTESIAN_POINT('',(1.2,0.,0.));
#358 = DIRECTION('',(1.,0.,0.));
#359 = DIRECTION('',(0.,1.,0.));
#360 = TOROIDAL_SURFACE('',#361,1.05,5.E-02);
#361 = AXIS2_PLACEMENT_3D('',#362,#363,#364);
#362 = CARTESIAN_POINT('',(1.2,0.,0.));
#363 = DIRECTION('',(1.,0.,0.));
#364 = DIRECTION('',(0.,1.,0.));
#365 = ADVANCED_FACE('',(#366),#385,.T.);
#366 = FACE_BOUND('',#367,.T.);
#367 = EDGE_LOOP('',(#368,#377,#383,#384));
#368 = ORIENTED_EDGE('',*,*,#369,.T.);
#369 = EDGE_CURVE('',#370,#370,#372,.T.);
#370 = VERTEX_POINT('',#371);
#371 = CARTESIAN_POINT('',(-1.,1.25,0.));
#372 = CIRCLE('',#373,1.25);
#373 = AXIS2_PLACEMENT_3D('',#374,#375,#376);
#374 = CARTESIAN_POINT('',(-1.,0.,0.));
#375 = DIRECTION('',(1.,0.,0.));
#376 = DIRECTION('',(0.,1.,0.));
#377 = ORIENTED_EDGE('',*,*,#378,.T.);
#378 = EDGE_CURVE('',#370,#319,#379,.T.);
#379 = LINE('',#380,#381);
#380 = CARTESIAN_POINT('',(-1.,1.25,0.));
#381 = VECTOR('',#382,1.);
#382 = DIRECTION('',(4.993761694389E-02,0.998752338878,0.));
#383 = ORIENTED_EDGE('',*,*,#326,.F.);
#384 = ORIENTED_EDGE('',*,*,#378,.F.);
#385 = CONICAL_SURFACE('',#386,1.25,1.520837931073);
#386 = AXIS2_PLACEMENT_3D('',#387,#388,#389);
#387 = CARTESIAN_POINT('',(-1.,0.,0.));
#388 = DIRECTION('',(1.,0.,0.));
#389 = DIRECTION('',(0.,1.,0.));
#390 = ADVANCED_FACE('',(#391),#409,.F.);
#391 = FACE_BOUND('',#392,.T.);
#392 = EDGE_LOOP('',(#393,#400,#407,#408));
#393 = ORIENTED_EDGE('',*,*,#394,.T.);
#394 = EDGE_CURVE('',#344,#395,#397,.T.);
#395 = VERTEX_POINT('',#396);
#396 = CARTESIAN_POINT('',(-1.2,1.,0.));
#397 = B_SPLINE_CURVE_WITH_KNOTS('',1,(#398,#399),.UNSPECIFIED.,.F.,.F.,
  (2,2),(-1.25,1.25),.PIECEWISE_BEZIER_KNOTS.);
#398 = CARTESIAN_POINT('',(1.25,1.,0.));
#399 = CARTESIAN_POINT('',(-1.25,1.,0.));
#400 = ORIENTED_EDGE('',*,*,#401,.F.);
#401 = EDGE_CURVE('',#395,#395,#402,.T.);
#402 = CIRCLE('',#403,1.);
#403 = AXIS2_PLACEMENT_3D('',#404,#405,#406);
#404 = CARTESIAN_POINT('',(-1.2,0.,0.));
#405 = DIRECTION('',(1.,0.,0.));
#406 = DIRECTION('',(0.,1.,0.));
#407 = ORIENTED_EDGE('',*,*,#394,.F.);
#408 = ORIENTED_EDGE('',*,*,#354,.T.);
#409 = CYLINDRICAL_SURFACE('',#410,1.);
#410 = AXIS2_PLACEMENT_3D('',#411,#412,#413);
#411 = CARTESIAN_POINT('',(-1.972152263053E-31,0.,0.));
#412 = DIRECTION('',(-1.,-0.,-0.));
#413 = DIRECTION('',(0.,1.,0.));
#414 = ADVANCED_FACE('',(#415),#434,.T.);
#415 = FACE_BOUND('',#416,.T.);
#416 = EDGE_LOOP('',(#417,#425,#432,#433));
#417 = ORIENTED_EDGE('',*,*,#418,.F.);
#418 = EDGE_CURVE('',#419,#370,#421,.T.);
#419 = VERTEX_POINT('',#420);
#420 = CARTESIAN_POINT('',(-1.2,1.25,0.));
#421 = LINE('',#422,#423);
#422 = CARTESIAN_POINT('',(-1.25,1.25,0.));
#423 = VECTOR('',#424,1.);
#424 = DIRECTION('',(1.,0.,0.));
#425 = ORIENTED_EDGE('',*,*,#426,.T.);
#426 = EDGE_CURVE('',#419,#419,#427,.T.);
#427 = CIRCLE('',#428,1.25);
#428 = AXIS2_PLACEMENT_3D('',#429,#430,#431);
#429 = CARTESIAN_POINT('',(-1.2,0.,0.));
#430 = DIRECTION('',(1.,0.,0.));
#431 = DIRECTION('',(0.,1.,0.));
#432 = ORIENTED_EDGE('',*,*,#418,.T.);
#433 = ORIENTED_EDGE('',*,*,#369,.F.);
#434 = CYLINDRICAL_SURFACE('',#435,1.25);
#435 = AXIS2_PLACEMENT_3D('',#436,#437,#438);
#436 = CARTESIAN_POINT('',(-1.25,0.,0.));
#437 = DIRECTION('',(1.,0.,0.));
#438 = DIRECTION('',(0.,1.,0.));
#439 = ADVANCED_FACE('',(#440),#460,.T.);
#440 = FACE_BOUND('',#441,.T.);
#441 = EDGE_LOOP('',(#442,#451,#452,#453));
#442 = ORIENTED_EDGE('',*,*,#443,.F.);
#443 = EDGE_CURVE('',#395,#444,#446,.T.);
#444 = VERTEX_POINT('',#445);
#445 = CARTESIAN_POINT('',(-1.25,1.05,0.));
#446 = CIRCLE('',#447,5.E-02);
#447 = AXIS2_PLACEMENT_3D('',#448,#449,#450);
#448 = CARTESIAN_POINT('',(-1.2,1.05,0.));
#449 = DIRECTION('',(0.,0.,-1.));
#450 = DIRECTION('',(0.,1.,0.));
#451 = ORIENTED_EDGE('',*,*,#401,.T.);
#452 = ORIENTED_EDGE('',*,*,#443,.T.);
#453 = ORIENTED_EDGE('',*,*,#454,.F.);
#454 = EDGE_CURVE('',#444,#444,#455,.T.);
#455 = CIRCLE('',#456,1.05);
#456 = AXIS2_PLACEMENT_3D('',#457,#458,#459);
#457 = CARTESIAN_POINT('',(-1.25,0.,0.));
#458 = DIRECTION('',(1.,0.,0.));
#459 = DIRECTION('',(0.,1.,0.));
#460 = TOROIDAL_SURFACE('',#461,1.05,5.E-02);
#461 = AXIS2_PLACEMENT_3D('',#462,#463,#464);
#462 = CARTESIAN_POINT('',(-1.2,0.,0.));
#463 = DIRECTION('',(1.,0.,0.));
#464 = DIRECTION('',(0.,1.,0.));
#465 = ADVANCED_FACE('',(#466),#486,.T.);
#466 = FACE_BOUND('',#467,.T.);
#467 = EDGE_LOOP('',(#468,#477,#484,#485));
#468 = ORIENTED_EDGE('',*,*,#469,.F.);
#469 = EDGE_CURVE('',#470,#419,#472,.T.);
#470 = VERTEX_POINT('',#471);
#471 = CARTESIAN_POINT('',(-1.25,1.2,0.));
#472 = CIRCLE('',#473,5.E-02);
#473 = AXIS2_PLACEMENT_3D('',#474,#475,#476);
#474 = CARTESIAN_POINT('',(-1.2,1.2,0.));
#475 = DIRECTION('',(0.,0.,-1.));
#476 = DIRECTION('',(0.,1.,0.));
#477 = ORIENTED_EDGE('',*,*,#478,.T.);
#478 = EDGE_CURVE('',#470,#470,#479,.T.);
#479 = CIRCLE('',#480,1.2);
#480 = AXIS2_PLACEMENT_3D('',#481,#482,#483);
#481 = CARTESIAN_POINT('',(-1.25,0.,0.));
#482 = DIRECTION('',(1.,0.,0.));
#483 = DIRECTION('',(0.,1.,0.));
#484 = ORIENTED_EDGE('',*,*,#469,.T.);
#485 = ORIENTED_EDGE('',*,*,#426,.F.);
#486 = TOROIDAL_SURFACE('',#487,1.2,5.E-02);
#487 = AXIS2_PLACEMENT_3D('',#488,#489,#490);
#488 = CARTESIAN_POINT('',(-1.2,0.,0.));
#489 = DIRECTION('',(1.,0.,0.));
#490 = DIRECTION('',(0.,1.,0.));
#491 = ADVANCED_FACE('',(#492,#495),#498,.F.);
#492 = FACE_BOUND('',#493,.T.);
#493 = EDGE_LOOP('',(#494));
#494 = ORIENTED_EDGE('',*,*,#454,.T.);
#495 = FACE_BOUND('',#496,.T.);
#496 = EDGE_LOOP('',(#497));
#497 = ORIENTED_EDGE('',*,*,#478,.F.);
#498 = PLANE('',#499);
#499 = AXIS2_PLACEMENT_3D('',#500,#501,#502);
#500 = CARTESIAN_POINT('',(-1.25,0.,0.));
#501 = DIRECTION('',(1.,0.,0.));
#502 = DIRECTION('',(0.,1.,0.));
#503 = ( GEOMETRIC_REPRESENTATION_CONTEXT(3) 
GLOBAL_UNCERTAINTY_ASSIGNED_CONTEXT((#507)) GLOBAL_UNIT_ASSIGNED_CONTEXT
((#504,#505,#506)) REPRESENTATION_CONTEXT('Context #1',
  '3D Context with UNIT and UNCERTAINTY') );
#504 = ( LENGTH_UNIT() NAMED_UNIT(*) SI_UNIT(.MILLI.,.METRE.) );
#505 = ( NAMED_UNIT(*) PLANE_ANGLE_UNIT() SI_UNIT($,.RADIAN.) );
#506 = ( NAMED_UNIT(*) SI_UNIT($,.STERADIAN.) SOLID_ANGLE_UNIT() );
#507 = UNCERTAINTY_MEASURE_WITH_UNIT(LENGTH_MEASURE(2.E-06),#504,
  'distance_accuracy_value','confusion accuracy');
#508 = PRODUCT_RELATED_PRODUCT_CATEGORY('part',$,(#7));
#509 = MECHANICAL_DESIGN_GEOMETRIC_PRESENTATION_REPRESENTATION('',(#510)
  ,#503);
#510 = STYLED_ITEM('color',(#511),#15);
#511 = PRESENTATION_STYLE_ASSIGNMENT((#512,#518));
#512 = SURFACE_STYLE_USAGE(.BOTH.,#513);
#513 = SURFACE_SIDE_STYLE('',(#514));
#514 = SURFACE_STYLE_FILL_AREA(#515);
#515 = FILL_AREA_STYLE('',(#516));
#516 = FILL_AREA_STYLE_COLOUR('',#517);
#517 = COLOUR_RGB('',0.447059003357,0.474510015008,0.501960993452);
#518 = CURVE_STYLE('',#519,POSITIVE_LENGTH_MEASURE(0.1),#520);
#519 = DRAUGHTING_PRE_DEFINED_CURVE_FONT('continuous');
#520 = COLOUR_RGB('',9.803921802644E-02,9.803921802644E-02,
  9.803921802644E-02);
ENDSEC;
END-ISO-10303-21;
