ISO-10303-21;
HEADER;
FILE_DESCRIPTION(('FreeCAD Model'),'2;1');
FILE_NAME('Open CASCADE Shape Model','2026-07-14T11:03:24',('Author'),(
    ''),'Open CASCADE STEP processor 7.8','FreeCAD','Unknown');
FILE_SCHEMA(('AUTOMOTIVE_DESIGN { 1 0 10303 214 1 1 1 1 }'));
ENDSEC;
DATA;
#1 = APPLICATION_PROTOCOL_DEFINITION('international standard',
  'automotive_design',2000,#2);
#2 = APPLICATION_CONTEXT(
  'core data for automotive mechanical design processes');
#3 = SHAPE_DEFINITION_REPRESENTATION(#4,#10);
#4 = PRODUCT_DEFINITION_SHAPE('','',#5);
#5 = PRODUCT_DEFINITION('design','',#6,#9);
#6 = PRODUCT_DEFINITION_FORMATION('','',#7);
#7 = PRODUCT('SteeringKnuckleV1','SteeringKnuckleV1','',(#8));
#8 = PRODUCT_CONTEXT('',#2,'mechanical');
#9 = PRODUCT_DEFINITION_CONTEXT('part definition',#2,'design');
#10 = ADVANCED_BREP_SHAPE_REPRESENTATION('',(#11,#15),#1152);
#11 = AXIS2_PLACEMENT_3D('',#12,#13,#14);
#12 = CARTESIAN_POINT('',(0.,0.,0.));
#13 = DIRECTION('',(0.,0.,1.));
#14 = DIRECTION('',(1.,0.,-0.));
#15 = MANIFOLD_SOLID_BREP('',#16);
#16 = CLOSED_SHELL('',(#17,#118,#150,#190,#215,#326,#350,#461,#486,#519,
    #539,#556,#574,#773,#795,#807,#836,#853,#870,#887,#904,#921,#933,
    #950,#975,#1016,#1026,#1036,#1077,#1087,#1097,#1122,#1134,#1143));
#17 = ADVANCED_FACE('',(#18),#113,.T.);
#18 = FACE_BOUND('',#19,.F.);
#19 = EDGE_LOOP('',(#20,#30,#37,#38,#47,#55,#64,#72,#81,#89,#98,#106));
#20 = ORIENTED_EDGE('',*,*,#21,.F.);
#21 = EDGE_CURVE('',#22,#24,#26,.T.);
#22 = VERTEX_POINT('',#23);
#23 = CARTESIAN_POINT('',(0.,4.,0.));
#24 = VERTEX_POINT('',#25);
#25 = CARTESIAN_POINT('',(1.260869565217,4.,0.));
#26 = LINE('',#27,#28);
#27 = CARTESIAN_POINT('',(0.,4.,0.));
#28 = VECTOR('',#29,1.);
#29 = DIRECTION('',(1.,0.,0.));
#30 = ORIENTED_EDGE('',*,*,#31,.F.);
#31 = EDGE_CURVE('',#22,#22,#32,.T.);
#32 = CIRCLE('',#33,4.);
#33 = AXIS2_PLACEMENT_3D('',#34,#35,#36);
#34 = CARTESIAN_POINT('',(0.,0.,0.));
#35 = DIRECTION('',(1.,0.,0.));
#36 = DIRECTION('',(0.,1.,0.));
#37 = ORIENTED_EDGE('',*,*,#21,.T.);
#38 = ORIENTED_EDGE('',*,*,#39,.F.);
#39 = EDGE_CURVE('',#40,#24,#42,.T.);
#40 = VERTEX_POINT('',#41);
#41 = CARTESIAN_POINT('',(1.007042820476,3.708099243548,1.5));
#42 = ELLIPSE('',#43,5.300782836218,4.);
#43 = AXIS2_PLACEMENT_3D('',#44,#45,#46);
#44 = CARTESIAN_POINT('',(-2.217391304348,0.,0.));
#45 = DIRECTION('',(-0.754605522164,0.656178714925,0.));
#46 = DIRECTION('',(-0.656178714925,-0.754605522164,0.));
#47 = ORIENTED_EDGE('',*,*,#48,.F.);
#48 = EDGE_CURVE('',#49,#40,#51,.T.);
#49 = VERTEX_POINT('',#50);
#50 = CARTESIAN_POINT('',(5.,3.708099243548,1.5));
#51 = LINE('',#52,#53);
#52 = CARTESIAN_POINT('',(0.,3.708099243548,1.5));
#53 = VECTOR('',#54,1.);
#54 = DIRECTION('',(-1.,-0.,-0.));
#55 = ORIENTED_EDGE('',*,*,#56,.T.);
#56 = EDGE_CURVE('',#49,#57,#59,.T.);
#57 = VERTEX_POINT('',#58);
#58 = CARTESIAN_POINT('',(5.,-3.708099243548,1.5));
#59 = CIRCLE('',#60,4.);
#60 = AXIS2_PLACEMENT_3D('',#61,#62,#63);
#61 = CARTESIAN_POINT('',(5.,0.,0.));
#62 = DIRECTION('',(1.,0.,0.));
#63 = DIRECTION('',(0.,1.,0.));
#64 = ORIENTED_EDGE('',*,*,#65,.T.);
#65 = EDGE_CURVE('',#57,#66,#68,.T.);
#66 = VERTEX_POINT('',#67);
#67 = CARTESIAN_POINT('',(2.008914261766,-3.708099243548,1.5));
#68 = LINE('',#69,#70);
#69 = CARTESIAN_POINT('',(0.,-3.708099243548,1.5));
#70 = VECTOR('',#71,1.);
#71 = DIRECTION('',(-1.,-0.,-0.));
#72 = ORIENTED_EDGE('',*,*,#73,.F.);
#73 = EDGE_CURVE('',#74,#66,#76,.T.);
#74 = VERTEX_POINT('',#75);
#75 = CARTESIAN_POINT('',(2.008914261766,-3.708099243548,-1.5));
#76 = ELLIPSE('',#77,5.948289224108,4.);
#77 = AXIS2_PLACEMENT_3D('',#78,#79,#80);
#78 = CARTESIAN_POINT('',(-2.072327044025,0.,0.));
#79 = DIRECTION('',(-0.672462257516,-0.740131415505,-0.));
#80 = DIRECTION('',(-0.740131415505,0.672462257516,0.));
#81 = ORIENTED_EDGE('',*,*,#82,.F.);
#82 = EDGE_CURVE('',#83,#74,#85,.T.);
#83 = VERTEX_POINT('',#84);
#84 = CARTESIAN_POINT('',(5.,-3.708099243548,-1.5));
#85 = LINE('',#86,#87);
#86 = CARTESIAN_POINT('',(0.,-3.708099243548,-1.5));
#87 = VECTOR('',#88,1.);
#88 = DIRECTION('',(-1.,-0.,-0.));
#89 = ORIENTED_EDGE('',*,*,#90,.T.);
#90 = EDGE_CURVE('',#83,#91,#93,.T.);
#91 = VERTEX_POINT('',#92);
#92 = CARTESIAN_POINT('',(5.,3.708099243548,-1.5));
#93 = CIRCLE('',#94,4.);
#94 = AXIS2_PLACEMENT_3D('',#95,#96,#97);
#95 = CARTESIAN_POINT('',(5.,0.,0.));
#96 = DIRECTION('',(1.,0.,0.));
#97 = DIRECTION('',(0.,1.,0.));
#98 = ORIENTED_EDGE('',*,*,#99,.T.);
#99 = EDGE_CURVE('',#91,#100,#102,.T.);
#100 = VERTEX_POINT('',#101);
#101 = CARTESIAN_POINT('',(1.007042820476,3.708099243548,-1.5));
#102 = LINE('',#103,#104);
#103 = CARTESIAN_POINT('',(0.,3.708099243548,-1.5));
#104 = VECTOR('',#105,1.);
#105 = DIRECTION('',(-1.,-0.,-0.));
#106 = ORIENTED_EDGE('',*,*,#107,.F.);
#107 = EDGE_CURVE('',#24,#100,#108,.T.);
#108 = ELLIPSE('',#109,5.300782836218,4.);
#109 = AXIS2_PLACEMENT_3D('',#110,#111,#112);
#110 = CARTESIAN_POINT('',(-2.217391304348,0.,0.));
#111 = DIRECTION('',(-0.754605522164,0.656178714925,0.));
#112 = DIRECTION('',(-0.656178714925,-0.754605522164,0.));
#113 = CYLINDRICAL_SURFACE('',#114,4.);
#114 = AXIS2_PLACEMENT_3D('',#115,#116,#117);
#115 = CARTESIAN_POINT('',(0.,0.,0.));
#116 = DIRECTION('',(-1.,-0.,-0.));
#117 = DIRECTION('',(0.,1.,0.));
#118 = ADVANCED_FACE('',(#119),#145,.T.);
#119 = FACE_BOUND('',#120,.T.);
#120 = EDGE_LOOP('',(#121,#129,#130,#131,#139));
#121 = ORIENTED_EDGE('',*,*,#122,.F.);
#122 = EDGE_CURVE('',#100,#123,#125,.T.);
#123 = VERTEX_POINT('',#124);
#124 = CARTESIAN_POINT('',(3.,6.,-1.5));
#125 = LINE('',#126,#127);
#126 = CARTESIAN_POINT('',(1.,3.7,-1.5));
#127 = VECTOR('',#128,1.);
#128 = DIRECTION('',(0.656178714925,0.754605522164,0.));
#129 = ORIENTED_EDGE('',*,*,#107,.F.);
#130 = ORIENTED_EDGE('',*,*,#39,.F.);
#131 = ORIENTED_EDGE('',*,*,#132,.T.);
#132 = EDGE_CURVE('',#40,#133,#135,.T.);
#133 = VERTEX_POINT('',#134);
#134 = CARTESIAN_POINT('',(3.,6.,1.5));
#135 = LINE('',#136,#137);
#136 = CARTESIAN_POINT('',(1.,3.7,1.5));
#137 = VECTOR('',#138,1.);
#138 = DIRECTION('',(0.656178714925,0.754605522164,0.));
#139 = ORIENTED_EDGE('',*,*,#140,.F.);
#140 = EDGE_CURVE('',#123,#133,#141,.T.);
#141 = LINE('',#142,#143);
#142 = CARTESIAN_POINT('',(3.,6.,-1.5));
#143 = VECTOR('',#144,1.);
#144 = DIRECTION('',(0.,0.,1.));
#145 = PLANE('',#146);
#146 = AXIS2_PLACEMENT_3D('',#147,#148,#149);
#147 = CARTESIAN_POINT('',(1.,3.7,-1.5));
#148 = DIRECTION('',(-0.754605522164,0.656178714925,0.));
#149 = DIRECTION('',(0.656178714925,0.754605522164,0.));
#150 = ADVANCED_FACE('',(#151),#185,.F.);
#151 = FACE_BOUND('',#152,.F.);
#152 = EDGE_LOOP('',(#153,#154,#155,#163,#171,#179));
#153 = ORIENTED_EDGE('',*,*,#122,.F.);
#154 = ORIENTED_EDGE('',*,*,#99,.F.);
#155 = ORIENTED_EDGE('',*,*,#156,.F.);
#156 = EDGE_CURVE('',#157,#91,#159,.T.);
#157 = VERTEX_POINT('',#158);
#158 = CARTESIAN_POINT('',(5.,4.769696007085,-1.5));
#159 = LINE('',#160,#161);
#160 = CARTESIAN_POINT('',(5.,2.310548795025,-1.5));
#161 = VECTOR('',#162,1.);
#162 = DIRECTION('',(0.,-1.,0.));
#163 = ORIENTED_EDGE('',*,*,#164,.F.);
#164 = EDGE_CURVE('',#165,#157,#167,.T.);
#165 = VERTEX_POINT('',#166);
#166 = CARTESIAN_POINT('',(9.069829559057,4.769696007085,-1.5));
#167 = LINE('',#168,#169);
#168 = CARTESIAN_POINT('',(5.,4.769696007085,-1.5));
#169 = VECTOR('',#170,1.);
#170 = DIRECTION('',(-1.,-0.,-0.));
#171 = ORIENTED_EDGE('',*,*,#172,.F.);
#172 = EDGE_CURVE('',#173,#165,#175,.T.);
#173 = VERTEX_POINT('',#174);
#174 = CARTESIAN_POINT('',(8.,6.,-1.5));
#175 = LINE('',#176,#177);
#176 = CARTESIAN_POINT('',(8.,6.,-1.5));
#177 = VECTOR('',#178,1.);
#178 = DIRECTION('',(0.656178714925,-0.754605522164,0.));
#179 = ORIENTED_EDGE('',*,*,#180,.F.);
#180 = EDGE_CURVE('',#123,#173,#181,.T.);
#181 = LINE('',#182,#183);
#182 = CARTESIAN_POINT('',(3.,6.,-1.5));
#183 = VECTOR('',#184,1.);
#184 = DIRECTION('',(1.,0.,0.));
#185 = PLANE('',#186);
#186 = AXIS2_PLACEMENT_3D('',#187,#188,#189);
#187 = CARTESIAN_POINT('',(5.5,4.62109759005,-1.5));
#188 = DIRECTION('',(0.,0.,1.));
#189 = DIRECTION('',(1.,0.,0.));
#190 = ADVANCED_FACE('',(#191),#210,.F.);
#191 = FACE_BOUND('',#192,.F.);
#192 = EDGE_LOOP('',(#193,#201,#208,#209));
#193 = ORIENTED_EDGE('',*,*,#194,.T.);
#194 = EDGE_CURVE('',#83,#195,#197,.T.);
#195 = VERTEX_POINT('',#196);
#196 = CARTESIAN_POINT('',(5.,-4.769696007085,-1.5));
#197 = LINE('',#198,#199);
#198 = CARTESIAN_POINT('',(5.,-3.62519381614,-1.5));
#199 = VECTOR('',#200,1.);
#200 = DIRECTION('',(0.,-1.,0.));
#201 = ORIENTED_EDGE('',*,*,#202,.T.);
#202 = EDGE_CURVE('',#195,#157,#203,.T.);
#203 = CIRCLE('',#204,5.);
#204 = AXIS2_PLACEMENT_3D('',#205,#206,#207);
#205 = CARTESIAN_POINT('',(5.,0.,0.));
#206 = DIRECTION('',(1.,0.,0.));
#207 = DIRECTION('',(0.,1.,0.));
#208 = ORIENTED_EDGE('',*,*,#156,.T.);
#209 = ORIENTED_EDGE('',*,*,#90,.F.);
#210 = PLANE('',#211);
#211 = AXIS2_PLACEMENT_3D('',#212,#213,#214);
#212 = CARTESIAN_POINT('',(5.,-2.734880265079E-16,6.938022664999E-17));
#213 = DIRECTION('',(1.,0.,0.));
#214 = DIRECTION('',(0.,0.,1.));
#215 = ADVANCED_FACE('',(#216,#310),#321,.F.);
#216 = FACE_BOUND('',#217,.F.);
#217 = EDGE_LOOP('',(#218,#228,#237,#245,#254,#262,#271,#279,#287,#293,
    #294,#295,#303));
#218 = ORIENTED_EDGE('',*,*,#219,.F.);
#219 = EDGE_CURVE('',#220,#222,#224,.T.);
#220 = VERTEX_POINT('',#221);
#221 = CARTESIAN_POINT('',(9.,-11.26,-1.5));
#222 = VERTEX_POINT('',#223);
#223 = CARTESIAN_POINT('',(9.,-10.92429210843,-1.5));
#224 = LINE('',#225,#226);
#225 = CARTESIAN_POINT('',(9.,-11.26,-1.5));
#226 = VECTOR('',#227,1.);
#227 = DIRECTION('',(0.,1.,0.));
#228 = ORIENTED_EDGE('',*,*,#229,.T.);
#229 = EDGE_CURVE('',#220,#230,#232,.T.);
#230 = VERTEX_POINT('',#231);
#231 = CARTESIAN_POINT('',(9.8,-12.06,-1.5));
#232 = CIRCLE('',#233,0.8);
#233 = AXIS2_PLACEMENT_3D('',#234,#235,#236);
#234 = CARTESIAN_POINT('',(9.8,-11.26,-1.5));
#235 = DIRECTION('',(0.,0.,1.));
#236 = DIRECTION('',(1.,0.,0.));
#237 = ORIENTED_EDGE('',*,*,#238,.F.);
#238 = EDGE_CURVE('',#239,#230,#241,.T.);
#239 = VERTEX_POINT('',#240);
#240 = CARTESIAN_POINT('',(11.2,-12.06,-1.5));
#241 = LINE('',#242,#243);
#242 = CARTESIAN_POINT('',(11.2,-12.06,-1.5));
#243 = VECTOR('',#244,1.);
#244 = DIRECTION('',(-1.,0.,0.));
#245 = ORIENTED_EDGE('',*,*,#246,.T.);
#246 = EDGE_CURVE('',#239,#247,#249,.T.);
#247 = VERTEX_POINT('',#248);
#248 = CARTESIAN_POINT('',(12.,-11.26,-1.5));
#249 = CIRCLE('',#250,0.8);
#250 = AXIS2_PLACEMENT_3D('',#251,#252,#253);
#251 = CARTESIAN_POINT('',(11.2,-11.26,-1.5));
#252 = DIRECTION('',(0.,0.,1.));
#253 = DIRECTION('',(1.,0.,0.));
#254 = ORIENTED_EDGE('',*,*,#255,.F.);
#255 = EDGE_CURVE('',#256,#247,#258,.T.);
#256 = VERTEX_POINT('',#257);
#257 = CARTESIAN_POINT('',(12.,-9.798246566861,-1.5));
#258 = LINE('',#259,#260);
#259 = CARTESIAN_POINT('',(12.,-9.798246566861,-1.5));
#260 = VECTOR('',#261,1.);
#261 = DIRECTION('',(0.,-1.,0.));
#262 = ORIENTED_EDGE('',*,*,#263,.T.);
#263 = EDGE_CURVE('',#256,#264,#266,.T.);
#264 = VERTEX_POINT('',#265);
#265 = CARTESIAN_POINT('',(11.692194130408,-8.388983204289,-1.5));
#266 = CIRCLE('',#267,3.38);
#267 = AXIS2_PLACEMENT_3D('',#268,#269,#270);
#268 = CARTESIAN_POINT('',(8.62,-9.798246566861,-1.5));
#269 = DIRECTION('',(0.,0.,1.));
#270 = DIRECTION('',(1.,0.,0.));
#271 = ORIENTED_EDGE('',*,*,#272,.F.);
#272 = EDGE_CURVE('',#273,#264,#275,.T.);
#273 = VERTEX_POINT('',#274);
#274 = CARTESIAN_POINT('',(10.,-4.7,-1.5));
#275 = LINE('',#276,#277);
#276 = CARTESIAN_POINT('',(10.,-4.7,-1.5));
#277 = VECTOR('',#278,1.);
#278 = DIRECTION('',(0.416941823246,-0.908933174677,0.));
#279 = ORIENTED_EDGE('',*,*,#280,.T.);
#280 = EDGE_CURVE('',#273,#281,#283,.T.);
#281 = VERTEX_POINT('',#282);
#282 = CARTESIAN_POINT('',(10.,-4.769696007085,-1.5));
#283 = LINE('',#284,#285);
#284 = CARTESIAN_POINT('',(10.,-3.62519381614,-1.5));
#285 = VECTOR('',#286,1.);
#286 = DIRECTION('',(0.,-1.,0.));
#287 = ORIENTED_EDGE('',*,*,#288,.T.);
#288 = EDGE_CURVE('',#281,#195,#289,.T.);
#289 = LINE('',#290,#291);
#290 = CARTESIAN_POINT('',(5.,-4.769696007085,-1.5));
#291 = VECTOR('',#292,1.);
#292 = DIRECTION('',(-1.,-0.,-0.));
#293 = ORIENTED_EDGE('',*,*,#194,.F.);
#294 = ORIENTED_EDGE('',*,*,#82,.T.);
#295 = ORIENTED_EDGE('',*,*,#296,.F.);
#296 = EDGE_CURVE('',#297,#74,#299,.T.);
#297 = VERTEX_POINT('',#298);
#298 = CARTESIAN_POINT('',(8.360310258371,-9.478796177606,-1.5));
#299 = LINE('',#300,#301);
#300 = CARTESIAN_POINT('',(8.360310258371,-9.478796177606,-1.5));
#301 = VECTOR('',#302,1.);
#302 = DIRECTION('',(-0.740131415505,0.672462257516,0.));
#303 = ORIENTED_EDGE('',*,*,#304,.F.);
#304 = EDGE_CURVE('',#222,#297,#305,.T.);
#305 = CIRCLE('',#306,1.9530260445);
#306 = AXIS2_PLACEMENT_3D('',#307,#308,#309);
#307 = CARTESIAN_POINT('',(7.0469739555,-10.92429210843,-1.5));
#308 = DIRECTION('',(0.,0.,1.));
#309 = DIRECTION('',(1.,0.,0.));
#310 = FACE_BOUND('',#311,.F.);
#311 = EDGE_LOOP('',(#312));
#312 = ORIENTED_EDGE('',*,*,#313,.F.);
#313 = EDGE_CURVE('',#314,#314,#316,.T.);
#314 = VERTEX_POINT('',#315);
#315 = CARTESIAN_POINT('',(11.,-10.56,-1.5));
#316 = CIRCLE('',#317,0.5);
#317 = AXIS2_PLACEMENT_3D('',#318,#319,#320);
#318 = CARTESIAN_POINT('',(10.5,-10.56,-1.5));
#319 = DIRECTION('',(0.,0.,1.));
#320 = DIRECTION('',(1.,0.,0.));
#321 = PLANE('',#322);
#322 = AXIS2_PLACEMENT_3D('',#323,#324,#325);
#323 = CARTESIAN_POINT('',(8.079072078693,-7.250387632281,-1.5));
#324 = DIRECTION('',(0.,0.,1.));
#325 = DIRECTION('',(1.,0.,0.));
#326 = ADVANCED_FACE('',(#327),#345,.T.);
#327 = FACE_BOUND('',#328,.T.);
#328 = EDGE_LOOP('',(#329,#330,#338,#344));
#329 = ORIENTED_EDGE('',*,*,#296,.F.);
#330 = ORIENTED_EDGE('',*,*,#331,.T.);
#331 = EDGE_CURVE('',#297,#332,#334,.T.);
#332 = VERTEX_POINT('',#333);
#333 = CARTESIAN_POINT('',(8.360310258371,-9.478796177606,1.5));
#334 = LINE('',#335,#336);
#335 = CARTESIAN_POINT('',(8.360310258371,-9.478796177606,-1.5));
#336 = VECTOR('',#337,1.);
#337 = DIRECTION('',(0.,0.,1.));
#338 = ORIENTED_EDGE('',*,*,#339,.T.);
#339 = EDGE_CURVE('',#332,#66,#340,.T.);
#340 = LINE('',#341,#342);
#341 = CARTESIAN_POINT('',(8.360310258371,-9.478796177606,1.5));
#342 = VECTOR('',#343,1.);
#343 = DIRECTION('',(-0.740131415505,0.672462257516,0.));
#344 = ORIENTED_EDGE('',*,*,#73,.F.);
#345 = PLANE('',#346);
#346 = AXIS2_PLACEMENT_3D('',#347,#348,#349);
#347 = CARTESIAN_POINT('',(8.360310258371,-9.478796177606,-1.5));
#348 = DIRECTION('',(-0.672462257516,-0.740131415505,0.));
#349 = DIRECTION('',(-0.740131415505,0.672462257516,0.));
#350 = ADVANCED_FACE('',(#351,#445),#456,.T.);
#351 = FACE_BOUND('',#352,.T.);
#352 = EDGE_LOOP('',(#353,#363,#372,#380,#389,#397,#406,#414,#422,#430,
    #436,#437,#438));
#353 = ORIENTED_EDGE('',*,*,#354,.F.);
#354 = EDGE_CURVE('',#355,#357,#359,.T.);
#355 = VERTEX_POINT('',#356);
#356 = CARTESIAN_POINT('',(9.,-11.26,1.5));
#357 = VERTEX_POINT('',#358);
#358 = CARTESIAN_POINT('',(9.,-10.92429210843,1.5));
#359 = LINE('',#360,#361);
#360 = CARTESIAN_POINT('',(9.,-11.26,1.5));
#361 = VECTOR('',#362,1.);
#362 = DIRECTION('',(0.,1.,0.));
#363 = ORIENTED_EDGE('',*,*,#364,.T.);
#364 = EDGE_CURVE('',#355,#365,#367,.T.);
#365 = VERTEX_POINT('',#366);
#366 = CARTESIAN_POINT('',(9.8,-12.06,1.5));
#367 = CIRCLE('',#368,0.8);
#368 = AXIS2_PLACEMENT_3D('',#369,#370,#371);
#369 = CARTESIAN_POINT('',(9.8,-11.26,1.5));
#370 = DIRECTION('',(0.,0.,1.));
#371 = DIRECTION('',(1.,0.,0.));
#372 = ORIENTED_EDGE('',*,*,#373,.F.);
#373 = EDGE_CURVE('',#374,#365,#376,.T.);
#374 = VERTEX_POINT('',#375);
#375 = CARTESIAN_POINT('',(11.2,-12.06,1.5));
#376 = LINE('',#377,#378);
#377 = CARTESIAN_POINT('',(11.2,-12.06,1.5));
#378 = VECTOR('',#379,1.);
#379 = DIRECTION('',(-1.,0.,0.));
#380 = ORIENTED_EDGE('',*,*,#381,.T.);
#381 = EDGE_CURVE('',#374,#382,#384,.T.);
#382 = VERTEX_POINT('',#383);
#383 = CARTESIAN_POINT('',(12.,-11.26,1.5));
#384 = CIRCLE('',#385,0.8);
#385 = AXIS2_PLACEMENT_3D('',#386,#387,#388);
#386 = CARTESIAN_POINT('',(11.2,-11.26,1.5));
#387 = DIRECTION('',(0.,0.,1.));
#388 = DIRECTION('',(1.,0.,0.));
#389 = ORIENTED_EDGE('',*,*,#390,.F.);
#390 = EDGE_CURVE('',#391,#382,#393,.T.);
#391 = VERTEX_POINT('',#392);
#392 = CARTESIAN_POINT('',(12.,-9.798246566861,1.5));
#393 = LINE('',#394,#395);
#394 = CARTESIAN_POINT('',(12.,-9.798246566861,1.5));
#395 = VECTOR('',#396,1.);
#396 = DIRECTION('',(0.,-1.,0.));
#397 = ORIENTED_EDGE('',*,*,#398,.T.);
#398 = EDGE_CURVE('',#391,#399,#401,.T.);
#399 = VERTEX_POINT('',#400);
#400 = CARTESIAN_POINT('',(11.692194130408,-8.388983204289,1.5));
#401 = CIRCLE('',#402,3.38);
#402 = AXIS2_PLACEMENT_3D('',#403,#404,#405);
#403 = CARTESIAN_POINT('',(8.62,-9.798246566861,1.5));
#404 = DIRECTION('',(0.,0.,1.));
#405 = DIRECTION('',(1.,0.,0.));
#406 = ORIENTED_EDGE('',*,*,#407,.F.);
#407 = EDGE_CURVE('',#408,#399,#410,.T.);
#408 = VERTEX_POINT('',#409);
#409 = CARTESIAN_POINT('',(10.,-4.7,1.5));
#410 = LINE('',#411,#412);
#411 = CARTESIAN_POINT('',(10.,-4.7,1.5));
#412 = VECTOR('',#413,1.);
#413 = DIRECTION('',(0.416941823246,-0.908933174677,0.));
#414 = ORIENTED_EDGE('',*,*,#415,.T.);
#415 = EDGE_CURVE('',#408,#416,#418,.T.);
#416 = VERTEX_POINT('',#417);
#417 = CARTESIAN_POINT('',(10.,-4.769696007085,1.5));
#418 = LINE('',#419,#420);
#419 = CARTESIAN_POINT('',(10.,-3.62519381614,1.5));
#420 = VECTOR('',#421,1.);
#421 = DIRECTION('',(0.,-1.,0.));
#422 = ORIENTED_EDGE('',*,*,#423,.T.);
#423 = EDGE_CURVE('',#416,#424,#426,.T.);
#424 = VERTEX_POINT('',#425);
#425 = CARTESIAN_POINT('',(5.,-4.769696007085,1.5));
#426 = LINE('',#427,#428);
#427 = CARTESIAN_POINT('',(5.,-4.769696007085,1.5));
#428 = VECTOR('',#429,1.);
#429 = DIRECTION('',(-1.,-0.,-0.));
#430 = ORIENTED_EDGE('',*,*,#431,.F.);
#431 = EDGE_CURVE('',#57,#424,#432,.T.);
#432 = LINE('',#433,#434);
#433 = CARTESIAN_POINT('',(5.,-3.62519381614,1.5));
#434 = VECTOR('',#435,1.);
#435 = DIRECTION('',(0.,-1.,0.));
#436 = ORIENTED_EDGE('',*,*,#65,.T.);
#437 = ORIENTED_EDGE('',*,*,#339,.F.);
#438 = ORIENTED_EDGE('',*,*,#439,.F.);
#439 = EDGE_CURVE('',#357,#332,#440,.T.);
#440 = CIRCLE('',#441,1.9530260445);
#441 = AXIS2_PLACEMENT_3D('',#442,#443,#444);
#442 = CARTESIAN_POINT('',(7.0469739555,-10.92429210843,1.5));
#443 = DIRECTION('',(0.,0.,1.));
#444 = DIRECTION('',(1.,0.,0.));
#445 = FACE_BOUND('',#446,.T.);
#446 = EDGE_LOOP('',(#447));
#447 = ORIENTED_EDGE('',*,*,#448,.F.);
#448 = EDGE_CURVE('',#449,#449,#451,.T.);
#449 = VERTEX_POINT('',#450);
#450 = CARTESIAN_POINT('',(11.,-10.56,1.5));
#451 = CIRCLE('',#452,0.5);
#452 = AXIS2_PLACEMENT_3D('',#453,#454,#455);
#453 = CARTESIAN_POINT('',(10.5,-10.56,1.5));
#454 = DIRECTION('',(0.,0.,1.));
#455 = DIRECTION('',(1.,0.,0.));
#456 = PLANE('',#457);
#457 = AXIS2_PLACEMENT_3D('',#458,#459,#460);
#458 = CARTESIAN_POINT('',(8.079072078693,-7.250387632281,1.5));
#459 = DIRECTION('',(0.,0.,1.));
#460 = DIRECTION('',(1.,0.,0.));
#461 = ADVANCED_FACE('',(#462),#481,.F.);
#462 = FACE_BOUND('',#463,.F.);
#463 = EDGE_LOOP('',(#464,#472,#479,#480));
#464 = ORIENTED_EDGE('',*,*,#465,.F.);
#465 = EDGE_CURVE('',#466,#49,#468,.T.);
#466 = VERTEX_POINT('',#467);
#467 = CARTESIAN_POINT('',(5.,4.769696007085,1.5));
#468 = LINE('',#469,#470);
#469 = CARTESIAN_POINT('',(5.,2.310548795025,1.5));
#470 = VECTOR('',#471,1.);
#471 = DIRECTION('',(0.,-1.,0.));
#472 = ORIENTED_EDGE('',*,*,#473,.T.);
#473 = EDGE_CURVE('',#466,#424,#474,.T.);
#474 = CIRCLE('',#475,5.);
#475 = AXIS2_PLACEMENT_3D('',#476,#477,#478);
#476 = CARTESIAN_POINT('',(5.,0.,0.));
#477 = DIRECTION('',(1.,0.,0.));
#478 = DIRECTION('',(0.,1.,0.));
#479 = ORIENTED_EDGE('',*,*,#431,.F.);
#480 = ORIENTED_EDGE('',*,*,#56,.F.);
#481 = PLANE('',#482);
#482 = AXIS2_PLACEMENT_3D('',#483,#484,#485);
#483 = CARTESIAN_POINT('',(5.,-2.734880265079E-16,6.938022664999E-17));
#484 = DIRECTION('',(1.,0.,0.));
#485 = DIRECTION('',(0.,0.,1.));
#486 = ADVANCED_FACE('',(#487),#514,.T.);
#487 = FACE_BOUND('',#488,.T.);
#488 = EDGE_LOOP('',(#489,#490,#491,#492,#500,#508));
#489 = ORIENTED_EDGE('',*,*,#132,.F.);
#490 = ORIENTED_EDGE('',*,*,#48,.F.);
#491 = ORIENTED_EDGE('',*,*,#465,.F.);
#492 = ORIENTED_EDGE('',*,*,#493,.F.);
#493 = EDGE_CURVE('',#494,#466,#496,.T.);
#494 = VERTEX_POINT('',#495);
#495 = CARTESIAN_POINT('',(9.069829559057,4.769696007085,1.5));
#496 = LINE('',#497,#498);
#497 = CARTESIAN_POINT('',(5.,4.769696007085,1.5));
#498 = VECTOR('',#499,1.);
#499 = DIRECTION('',(-1.,-0.,-0.));
#500 = ORIENTED_EDGE('',*,*,#501,.F.);
#501 = EDGE_CURVE('',#502,#494,#504,.T.);
#502 = VERTEX_POINT('',#503);
#503 = CARTESIAN_POINT('',(8.,6.,1.5));
#504 = LINE('',#505,#506);
#505 = CARTESIAN_POINT('',(8.,6.,1.5));
#506 = VECTOR('',#507,1.);
#507 = DIRECTION('',(0.656178714925,-0.754605522164,0.));
#508 = ORIENTED_EDGE('',*,*,#509,.F.);
#509 = EDGE_CURVE('',#133,#502,#510,.T.);
#510 = LINE('',#511,#512);
#511 = CARTESIAN_POINT('',(3.,6.,1.5));
#512 = VECTOR('',#513,1.);
#513 = DIRECTION('',(1.,0.,0.));
#514 = PLANE('',#515);
#515 = AXIS2_PLACEMENT_3D('',#516,#517,#518);
#516 = CARTESIAN_POINT('',(5.5,4.62109759005,1.5));
#517 = DIRECTION('',(0.,0.,1.));
#518 = DIRECTION('',(1.,0.,0.));
#519 = ADVANCED_FACE('',(#520,#523),#534,.F.);
#520 = FACE_BOUND('',#521,.F.);
#521 = EDGE_LOOP('',(#522));
#522 = ORIENTED_EDGE('',*,*,#31,.T.);
#523 = FACE_BOUND('',#524,.F.);
#524 = EDGE_LOOP('',(#525));
#525 = ORIENTED_EDGE('',*,*,#526,.T.);
#526 = EDGE_CURVE('',#527,#527,#529,.T.);
#527 = VERTEX_POINT('',#528);
#528 = CARTESIAN_POINT('',(0.,-2.45,0.));
#529 = CIRCLE('',#530,2.45);
#530 = AXIS2_PLACEMENT_3D('',#531,#532,#533);
#531 = CARTESIAN_POINT('',(0.,0.,0.));
#532 = DIRECTION('',(-1.,0.,0.));
#533 = DIRECTION('',(0.,-1.,0.));
#534 = PLANE('',#535);
#535 = AXIS2_PLACEMENT_3D('',#536,#537,#538);
#536 = CARTESIAN_POINT('',(0.,-2.563950248511E-16,7.643776681114E-18));
#537 = DIRECTION('',(1.,0.,0.));
#538 = DIRECTION('',(0.,0.,1.));
#539 = ADVANCED_FACE('',(#540),#551,.T.);
#540 = FACE_BOUND('',#541,.T.);
#541 = EDGE_LOOP('',(#542,#543,#544,#550));
#542 = ORIENTED_EDGE('',*,*,#140,.T.);
#543 = ORIENTED_EDGE('',*,*,#509,.T.);
#544 = ORIENTED_EDGE('',*,*,#545,.F.);
#545 = EDGE_CURVE('',#173,#502,#546,.T.);
#546 = LINE('',#547,#548);
#547 = CARTESIAN_POINT('',(8.,6.,-1.5));
#548 = VECTOR('',#549,1.);
#549 = DIRECTION('',(0.,0.,1.));
#550 = ORIENTED_EDGE('',*,*,#180,.F.);
#551 = PLANE('',#552);
#552 = AXIS2_PLACEMENT_3D('',#553,#554,#555);
#553 = CARTESIAN_POINT('',(3.,6.,-1.5));
#554 = DIRECTION('',(0.,1.,0.));
#555 = DIRECTION('',(1.,0.,0.));
#556 = ADVANCED_FACE('',(#557),#569,.T.);
#557 = FACE_BOUND('',#558,.T.);
#558 = EDGE_LOOP('',(#559,#560,#561,#562));
#559 = ORIENTED_EDGE('',*,*,#172,.F.);
#560 = ORIENTED_EDGE('',*,*,#545,.T.);
#561 = ORIENTED_EDGE('',*,*,#501,.T.);
#562 = ORIENTED_EDGE('',*,*,#563,.F.);
#563 = EDGE_CURVE('',#165,#494,#564,.T.);
#564 = ELLIPSE('',#565,6.625978545273,5.);
#565 = AXIS2_PLACEMENT_3D('',#566,#567,#568);
#566 = CARTESIAN_POINT('',(13.217391304348,0.,0.));
#567 = DIRECTION('',(0.754605522164,0.656178714925,-0.));
#568 = DIRECTION('',(-0.656178714925,0.754605522164,0.));
#569 = PLANE('',#570);
#570 = AXIS2_PLACEMENT_3D('',#571,#572,#573);
#571 = CARTESIAN_POINT('',(8.,6.,-1.5));
#572 = DIRECTION('',(0.754605522164,0.656178714925,0.));
#573 = DIRECTION('',(0.656178714925,-0.754605522164,0.));
#574 = ADVANCED_FACE('',(#575,#600,#684),#768,.T.);
#575 = FACE_BOUND('',#576,.F.);
#576 = EDGE_LOOP('',(#577,#586,#587,#588,#589,#590,#591,#592,#593));
#577 = ORIENTED_EDGE('',*,*,#578,.T.);
#578 = EDGE_CURVE('',#579,#416,#581,.T.);
#579 = VERTEX_POINT('',#580);
#580 = CARTESIAN_POINT('',(10.,5.,0.));
#581 = CIRCLE('',#582,5.);
#582 = AXIS2_PLACEMENT_3D('',#583,#584,#585);
#583 = CARTESIAN_POINT('',(10.,0.,0.));
#584 = DIRECTION('',(1.,0.,0.));
#585 = DIRECTION('',(0.,1.,0.));
#586 = ORIENTED_EDGE('',*,*,#423,.T.);
#587 = ORIENTED_EDGE('',*,*,#473,.F.);
#588 = ORIENTED_EDGE('',*,*,#493,.F.);
#589 = ORIENTED_EDGE('',*,*,#563,.F.);
#590 = ORIENTED_EDGE('',*,*,#164,.T.);
#591 = ORIENTED_EDGE('',*,*,#202,.F.);
#592 = ORIENTED_EDGE('',*,*,#288,.F.);
#593 = ORIENTED_EDGE('',*,*,#594,.T.);
#594 = EDGE_CURVE('',#281,#579,#595,.T.);
#595 = CIRCLE('',#596,5.);
#596 = AXIS2_PLACEMENT_3D('',#597,#598,#599);
#597 = CARTESIAN_POINT('',(10.,0.,0.));
#598 = DIRECTION('',(1.,0.,0.));
#599 = DIRECTION('',(0.,1.,0.));
#600 = FACE_BOUND('',#601,.F.);
#601 = EDGE_LOOP('',(#602,#623,#642,#650,#678));
#602 = ORIENTED_EDGE('',*,*,#603,.F.);
#603 = EDGE_CURVE('',#604,#606,#608,.T.);
#604 = VERTEX_POINT('',#605);
#605 = CARTESIAN_POINT('',(9.,0.,-5.));
#606 = VERTEX_POINT('',#607);
#607 = CARTESIAN_POINT('',(8.038516480713,1.4,-4.8));
#608 = B_SPLINE_CURVE_WITH_KNOTS('',7,(#609,#610,#611,#612,#613,#614,
    #615,#616,#617,#618,#619,#620,#621,#622),.UNSPECIFIED.,.F.,.F.,(8,6,
    8),(0.,0.259695085278,1.),.UNSPECIFIED.);
#609 = CARTESIAN_POINT('',(9.,-6.429395695524E-16,-5.));
#610 = CARTESIAN_POINT('',(9.,7.519075931012E-02,-5.));
#611 = CARTESIAN_POINT('',(8.995602710149,0.150287082894,-4.998680820094
    ));
#612 = CARTESIAN_POINT('',(8.986828046731,0.224814672483,-4.996048397434
    ));
#613 = CARTESIAN_POINT('',(8.973780988861,0.298303137475,-4.992156480205
    ));
#614 = CARTESIAN_POINT('',(8.956650589923,0.370296306722,-4.987105478795
    ));
#615 = CARTESIAN_POINT('',(8.935710522015,0.440362803027,-4.981035810863
    ));
#616 = CARTESIAN_POINT('',(8.841795119043,0.70122287001,-4.954388904807)
  );
#617 = CARTESIAN_POINT('',(8.7447546763,0.874035680267,-4.927897160371)
  );
#618 = CARTESIAN_POINT('',(8.626888274164,1.02454712892,-4.898046012031)
  );
#619 = CARTESIAN_POINT('',(8.493400416925,1.152200929688,-4.8681345423)
  );
#620 = CARTESIAN_POINT('',(8.348548569734,1.257059445068,-4.840726381073
    ));
#621 = CARTESIAN_POINT('',(8.195834790418,1.339533154215,-4.817638052956
    ));
#622 = CARTESIAN_POINT('',(8.038157367874,1.400138081549,-4.79995972406)
  );
#623 = ORIENTED_EDGE('',*,*,#624,.F.);
#624 = EDGE_CURVE('',#625,#604,#627,.T.);
#625 = VERTEX_POINT('',#626);
#626 = CARTESIAN_POINT('',(8.038516480713,-1.4,-4.8));
#627 = B_SPLINE_CURVE_WITH_KNOTS('',7,(#628,#629,#630,#631,#632,#633,
    #634,#635,#636,#637,#638,#639,#640,#641),.UNSPECIFIED.,.F.,.F.,(8,6,
    8),(0.,0.603436677131,1.),.UNSPECIFIED.);
#628 = CARTESIAN_POINT('',(8.038157367874,-1.400138081549,-4.79995972406
    ));
#629 = CARTESIAN_POINT('',(8.166910243577,-1.35065059913,-4.814395117829
    ));
#630 = CARTESIAN_POINT('',(8.292048737296,-1.286698778963,
    -4.832403735597));
#631 = CARTESIAN_POINT('',(8.412170531501,-1.208069536199,
    -4.853376864502));
#632 = CARTESIAN_POINT('',(8.525602032194,-1.114507041581,
    -4.876421872272));
#633 = CARTESIAN_POINT('',(8.630316030987,-1.005804245259,
    -4.900342110362));
#634 = CARTESIAN_POINT('',(8.723820442827,-0.881912101224,
    -4.923607437172));
#635 = CARTESIAN_POINT('',(8.854947422391,-0.652022033496,
    -4.958161581818));
#636 = CARTESIAN_POINT('',(8.900985291168,-0.554017303221,-4.97088688847
    ));
#637 = CARTESIAN_POINT('',(8.939530951728,-0.450083992113,
    -4.981980369565));
#638 = CARTESIAN_POINT('',(8.969398881816,-0.341364674188,
    -4.990819383083));
#639 = CARTESIAN_POINT('',(8.989732570598,-0.229166065222,
    -4.996919892078));
#640 = CARTESIAN_POINT('',(9.,-0.114895194459,-5.));
#641 = CARTESIAN_POINT('',(9.,-6.661338147751E-16,-5.));
#642 = ORIENTED_EDGE('',*,*,#643,.T.);
#643 = EDGE_CURVE('',#625,#644,#646,.T.);
#644 = VERTEX_POINT('',#645);
#645 = CARTESIAN_POINT('',(6.961483519287,-1.4,-4.8));
#646 = LINE('',#647,#648);
#647 = CARTESIAN_POINT('',(5.,-1.4,-4.8));
#648 = VECTOR('',#649,1.);
#649 = DIRECTION('',(-1.,-0.,-0.));
#650 = ORIENTED_EDGE('',*,*,#651,.F.);
#651 = EDGE_CURVE('',#652,#644,#654,.T.);
#652 = VERTEX_POINT('',#653);
#653 = CARTESIAN_POINT('',(6.961483519287,1.4,-4.8));
#654 = B_SPLINE_CURVE_WITH_KNOTS('',8,(#655,#656,#657,#658,#659,#660,
    #661,#662,#663,#664,#665,#666,#667,#668,#669,#670,#671,#672,#673,
    #674,#675,#676,#677),.UNSPECIFIED.,.F.,.F.,(9,7,7,9),(0.,
    0.418250448824,0.691457814008,1.),.UNSPECIFIED.);
#655 = CARTESIAN_POINT('',(6.961842632126,1.400138081549,-4.79995972406)
  );
#656 = CARTESIAN_POINT('',(6.806501769577,1.340431234907,-4.817376084721
    ));
#657 = CARTESIAN_POINT('',(6.655110908731,1.259636039406,-4.840023124145
    ));
#658 = CARTESIAN_POINT('',(6.510796005596,1.157110250109,-4.866961060378
    ));
#659 = CARTESIAN_POINT('',(6.377066119309,1.032560821794,-4.896576967626
    ));
#660 = CARTESIAN_POINT('',(6.25787683496,0.886125835964,-4.926546143335)
  );
#661 = CARTESIAN_POINT('',(6.157721093272,0.718531159827,-4.954039970332
    ));
#662 = CARTESIAN_POINT('',(6.081733394882,0.531255730982,-4.975899827679
    ));
#663 = CARTESIAN_POINT('',(6.006332687175,0.19393235556,-4.998022696584)
  );
#664 = CARTESIAN_POINT('',(5.990036914992,5.588500792635E-02,
    -5.002989584334));
#665 = CARTESIAN_POINT('',(5.988459389655,-8.43120226056E-02,
    -5.003528792505));
#666 = CARTESIAN_POINT('',(6.001961845747,-0.223858302165,
    -4.999384848844));
#667 = CARTESIAN_POINT('',(6.030094813124,-0.359945453035,
    -4.990818528278));
#668 = CARTESIAN_POINT('',(6.071604839192,-0.489917936513,
    -4.978577472022));
#669 = CARTESIAN_POINT('',(6.12440828793,-0.611432376201,-4.963746494595
    ));
#670 = CARTESIAN_POINT('',(6.254578037791,-0.8482102722,-4.92916281372)
  );
#671 = CARTESIAN_POINT('',(6.335132246269,-0.962259069729,
    -4.908784236987));
#672 = CARTESIAN_POINT('',(6.42505900597,-1.064490683843,-4.887551939147
    ));
#673 = CARTESIAN_POINT('',(6.522578940598,-1.154859038048,
    -4.866531431892));
#674 = CARTESIAN_POINT('',(6.626195863773,-1.233451231691,
    -4.846620914379));
#675 = CARTESIAN_POINT('',(6.734641038635,-1.300419202086,
    -4.828542605881));
#676 = CARTESIAN_POINT('',(6.846832927908,-1.355932927416,-4.81285427386
    ));
#677 = CARTESIAN_POINT('',(6.961842632126,-1.400138081549,-4.79995972406
    ));
#678 = ORIENTED_EDGE('',*,*,#679,.F.);
#679 = EDGE_CURVE('',#606,#652,#680,.T.);
#680 = LINE('',#681,#682);
#681 = CARTESIAN_POINT('',(5.,1.4,-4.8));
#682 = VECTOR('',#683,1.);
#683 = DIRECTION('',(-1.,-0.,-0.));
#684 = FACE_BOUND('',#685,.F.);
#685 = EDGE_LOOP('',(#686,#716,#724,#743,#762));
#686 = ORIENTED_EDGE('',*,*,#687,.T.);
#687 = EDGE_CURVE('',#688,#690,#692,.T.);
#688 = VERTEX_POINT('',#689);
#689 = CARTESIAN_POINT('',(6.961483519287,1.4,4.8));
#690 = VERTEX_POINT('',#691);
#691 = CARTESIAN_POINT('',(6.961483519287,-1.4,4.8));
#692 = B_SPLINE_CURVE_WITH_KNOTS('',8,(#693,#694,#695,#696,#697,#698,
    #699,#700,#701,#702,#703,#704,#705,#706,#707,#708,#709,#710,#711,
    #712,#713,#714,#715),.UNSPECIFIED.,.F.,.F.,(9,7,7,9),(0.,
    0.418230557055,0.691503064246,1.),.UNSPECIFIED.);
#693 = CARTESIAN_POINT('',(6.961488867339,1.400002057141,4.7999994));
#694 = CARTESIAN_POINT('',(6.806202020176,1.340270933514,4.817421005501)
  );
#695 = CARTESIAN_POINT('',(6.654866757241,1.259462349463,4.840068738321)
  );
#696 = CARTESIAN_POINT('',(6.510607537796,1.156934695296,4.867002785289)
  );
#697 = CARTESIAN_POINT('',(6.376931471621,1.032395590272,4.896610799728)
  );
#698 = CARTESIAN_POINT('',(6.257791623339,0.885983580078,4.926569525343)
  );
#699 = CARTESIAN_POINT('',(6.157677779845,0.718424678628,4.954052430103)
  );
#700 = CARTESIAN_POINT('',(6.081720354233,0.531197390475,4.975903653858)
  );
#701 = CARTESIAN_POINT('',(6.006332687175,0.19393235556,4.998022696584)
  );
#702 = CARTESIAN_POINT('',(5.990036914992,5.588500792639E-02,
    5.002989584334));
#703 = CARTESIAN_POINT('',(5.988459389655,-8.431202260567E-02,
    5.003528792505));
#704 = CARTESIAN_POINT('',(6.001961845747,-0.223858302165,4.999384848844
    ));
#705 = CARTESIAN_POINT('',(6.030094813124,-0.359945453035,4.990818528278
    ));
#706 = CARTESIAN_POINT('',(6.071604839192,-0.489917936513,4.978577472022
    ));
#707 = CARTESIAN_POINT('',(6.12440828793,-0.611432376201,4.963746494595)
  );
#708 = CARTESIAN_POINT('',(6.254551458091,-0.848161923905,4.929169875452
    ));
#709 = CARTESIAN_POINT('',(6.335070271901,-0.962171342514,4.908799914983
    ));
#710 = CARTESIAN_POINT('',(6.424955314697,-1.064372826783,4.887576418899
    ));
#711 = CARTESIAN_POINT('',(6.522429101989,-1.154720191058,4.866563728397
    ));
#712 = CARTESIAN_POINT('',(6.625996905579,-1.233300298124,4.846659148152
    ));
#713 = CARTESIAN_POINT('',(6.734391139371,-1.300264832661,4.828584274039
    ));
#714 = CARTESIAN_POINT('',(6.846531187744,-1.355783557654,4.812896482913
    ));
#715 = CARTESIAN_POINT('',(6.961488867339,-1.400002057141,4.7999994));
#716 = ORIENTED_EDGE('',*,*,#717,.F.);
#717 = EDGE_CURVE('',#718,#690,#720,.T.);
#718 = VERTEX_POINT('',#719);
#719 = CARTESIAN_POINT('',(8.038516480713,-1.4,4.8));
#720 = LINE('',#721,#722);
#721 = CARTESIAN_POINT('',(5.,-1.4,4.8));
#722 = VECTOR('',#723,1.);
#723 = DIRECTION('',(-1.,-0.,-0.));
#724 = ORIENTED_EDGE('',*,*,#725,.T.);
#725 = EDGE_CURVE('',#718,#726,#728,.T.);
#726 = VERTEX_POINT('',#727);
#727 = CARTESIAN_POINT('',(9.,0.,5.));
#728 = B_SPLINE_CURVE_WITH_KNOTS('',7,(#729,#730,#731,#732,#733,#734,
    #735,#736,#737,#738,#739,#740,#741,#742),.UNSPECIFIED.,.F.,.F.,(8,6,
    8),(0.,0.60334266856,1.),.UNSPECIFIED.);
#729 = CARTESIAN_POINT('',(8.038511132661,-1.400002057141,4.7999994));
#730 = CARTESIAN_POINT('',(8.167204866141,-1.350499981177,4.814437528509
    ));
#731 = CARTESIAN_POINT('',(8.292284340583,-1.286544511643,4.832444879585
    ));
#732 = CARTESIAN_POINT('',(8.412348495984,-1.207922722449,4.853413022245
    ));
#733 = CARTESIAN_POINT('',(8.525725279555,-1.114379104972,4.876450024571
    ));
#734 = CARTESIAN_POINT('',(8.630389434805,-1.005706998363,4.900360374071
    ));
#735 = CARTESIAN_POINT('',(8.72385152018,-0.881857616824,4.923615626573)
  );
#736 = CARTESIAN_POINT('',(8.854947422391,-0.652022033496,4.958161581818
    ));
#737 = CARTESIAN_POINT('',(8.900985291168,-0.554017303221,4.97088688847)
  );
#738 = CARTESIAN_POINT('',(8.939530951728,-0.450083992113,4.981980369565
    ));
#739 = CARTESIAN_POINT('',(8.969398881816,-0.341364674188,4.990819383083
    ));
#740 = CARTESIAN_POINT('',(8.989732570598,-0.229166065222,4.996919892078
    ));
#741 = CARTESIAN_POINT('',(9.,-0.114895194459,5.));
#742 = CARTESIAN_POINT('',(9.,0.,5.));
#743 = ORIENTED_EDGE('',*,*,#744,.T.);
#744 = EDGE_CURVE('',#726,#745,#747,.T.);
#745 = VERTEX_POINT('',#746);
#746 = CARTESIAN_POINT('',(8.038516480713,1.4,4.8));
#747 = B_SPLINE_CURVE_WITH_KNOTS('',7,(#748,#749,#750,#751,#752,#753,
    #754,#755,#756,#757,#758,#759,#760,#761),.UNSPECIFIED.,.F.,.F.,(8,6,
    8),(0.,0.259756961568,1.),.UNSPECIFIED.);
#748 = CARTESIAN_POINT('',(9.,-3.061616997868E-17,5.));
#749 = CARTESIAN_POINT('',(9.,7.519075931011E-02,5.));
#750 = CARTESIAN_POINT('',(8.995602710149,0.150287082894,4.998680820094)
  );
#751 = CARTESIAN_POINT('',(8.986828046731,0.224814672483,4.996048397434)
  );
#752 = CARTESIAN_POINT('',(8.973780988861,0.298303137475,4.992156480205)
  );
#753 = CARTESIAN_POINT('',(8.956650589923,0.370296306722,4.987105478795)
  );
#754 = CARTESIAN_POINT('',(8.935710522015,0.440362803027,4.981035810863)
  );
#755 = CARTESIAN_POINT('',(8.841817490481,0.701160730951,4.954395252323)
  );
#756 = CARTESIAN_POINT('',(8.744816949401,0.873924944946,4.927914159919)
  );
#757 = CARTESIAN_POINT('',(8.627001361292,1.024402880136,4.898074638613)
  );
#758 = CARTESIAN_POINT('',(8.4935708173,1.152038019788,4.86817271256));
#759 = CARTESIAN_POINT('',(8.34877959321,1.256892097699,4.840770107079)
  );
#760 = CARTESIAN_POINT('',(8.196127484236,1.339374889074,4.817682352213)
  );
#761 = CARTESIAN_POINT('',(8.038511132661,1.400002057141,4.7999994));
#762 = ORIENTED_EDGE('',*,*,#763,.T.);
#763 = EDGE_CURVE('',#745,#688,#764,.T.);
#764 = LINE('',#765,#766);
#765 = CARTESIAN_POINT('',(5.,1.4,4.8));
#766 = VECTOR('',#767,1.);
#767 = DIRECTION('',(-1.,-0.,-0.));
#768 = CYLINDRICAL_SURFACE('',#769,5.);
#769 = AXIS2_PLACEMENT_3D('',#770,#771,#772);
#770 = CARTESIAN_POINT('',(5.,0.,0.));
#771 = DIRECTION('',(-1.,-0.,-0.));
#772 = DIRECTION('',(0.,1.,0.));
#773 = ADVANCED_FACE('',(#774),#790,.T.);
#774 = FACE_BOUND('',#775,.T.);
#775 = EDGE_LOOP('',(#776,#782,#783,#789));
#776 = ORIENTED_EDGE('',*,*,#777,.T.);
#777 = EDGE_CURVE('',#220,#355,#778,.T.);
#778 = LINE('',#779,#780);
#779 = CARTESIAN_POINT('',(9.,-11.26,-1.5));
#780 = VECTOR('',#781,1.);
#781 = DIRECTION('',(0.,0.,1.));
#782 = ORIENTED_EDGE('',*,*,#354,.T.);
#783 = ORIENTED_EDGE('',*,*,#784,.F.);
#784 = EDGE_CURVE('',#222,#357,#785,.T.);
#785 = LINE('',#786,#787);
#786 = CARTESIAN_POINT('',(9.,-10.92429210843,-1.5));
#787 = VECTOR('',#788,1.);
#788 = DIRECTION('',(0.,0.,1.));
#789 = ORIENTED_EDGE('',*,*,#219,.F.);
#790 = PLANE('',#791);
#791 = AXIS2_PLACEMENT_3D('',#792,#793,#794);
#792 = CARTESIAN_POINT('',(9.,-11.26,-1.5));
#793 = DIRECTION('',(-1.,0.,0.));
#794 = DIRECTION('',(0.,1.,0.));
#795 = ADVANCED_FACE('',(#796),#802,.F.);
#796 = FACE_BOUND('',#797,.T.);
#797 = EDGE_LOOP('',(#798,#799,#800,#801));
#798 = ORIENTED_EDGE('',*,*,#784,.T.);
#799 = ORIENTED_EDGE('',*,*,#439,.T.);
#800 = ORIENTED_EDGE('',*,*,#331,.F.);
#801 = ORIENTED_EDGE('',*,*,#304,.F.);
#802 = CYLINDRICAL_SURFACE('',#803,1.9530260445);
#803 = AXIS2_PLACEMENT_3D('',#804,#805,#806);
#804 = CARTESIAN_POINT('',(7.0469739555,-10.92429210843,-1.5));
#805 = DIRECTION('',(-0.,-0.,-1.));
#806 = DIRECTION('',(1.,0.,0.));
#807 = ADVANCED_FACE('',(#808,#820),#831,.T.);
#808 = FACE_BOUND('',#809,.T.);
#809 = EDGE_LOOP('',(#810,#811,#812,#813,#819));
#810 = ORIENTED_EDGE('',*,*,#594,.T.);
#811 = ORIENTED_EDGE('',*,*,#578,.T.);
#812 = ORIENTED_EDGE('',*,*,#415,.F.);
#813 = ORIENTED_EDGE('',*,*,#814,.F.);
#814 = EDGE_CURVE('',#273,#408,#815,.T.);
#815 = LINE('',#816,#817);
#816 = CARTESIAN_POINT('',(10.,-4.7,-1.5));
#817 = VECTOR('',#818,1.);
#818 = DIRECTION('',(0.,0.,1.));
#819 = ORIENTED_EDGE('',*,*,#280,.T.);
#820 = FACE_BOUND('',#821,.T.);
#821 = EDGE_LOOP('',(#822));
#822 = ORIENTED_EDGE('',*,*,#823,.F.);
#823 = EDGE_CURVE('',#824,#824,#826,.T.);
#824 = VERTEX_POINT('',#825);
#825 = CARTESIAN_POINT('',(10.,1.05,0.));
#826 = CIRCLE('',#827,1.05);
#827 = AXIS2_PLACEMENT_3D('',#828,#829,#830);
#828 = CARTESIAN_POINT('',(10.,0.,0.));
#829 = DIRECTION('',(1.,0.,0.));
#830 = DIRECTION('',(0.,1.,0.));
#831 = PLANE('',#832);
#832 = AXIS2_PLACEMENT_3D('',#833,#834,#835);
#833 = CARTESIAN_POINT('',(10.,-4.614308712304E-02,-1.895129803179E-16)
  );
#834 = DIRECTION('',(1.,0.,0.));
#835 = DIRECTION('',(0.,0.,1.));
#836 = ADVANCED_FACE('',(#837),#848,.T.);
#837 = FACE_BOUND('',#838,.T.);
#838 = EDGE_LOOP('',(#839,#840,#841,#847));
#839 = ORIENTED_EDGE('',*,*,#814,.T.);
#840 = ORIENTED_EDGE('',*,*,#407,.T.);
#841 = ORIENTED_EDGE('',*,*,#842,.F.);
#842 = EDGE_CURVE('',#264,#399,#843,.T.);
#843 = LINE('',#844,#845);
#844 = CARTESIAN_POINT('',(11.692194130408,-8.388983204289,-1.5));
#845 = VECTOR('',#846,1.);
#846 = DIRECTION('',(0.,0.,1.));
#847 = ORIENTED_EDGE('',*,*,#272,.F.);
#848 = PLANE('',#849);
#849 = AXIS2_PLACEMENT_3D('',#850,#851,#852);
#850 = CARTESIAN_POINT('',(10.,-4.7,-1.5));
#851 = DIRECTION('',(0.908933174677,0.416941823246,0.));
#852 = DIRECTION('',(0.416941823246,-0.908933174677,0.));
#853 = ADVANCED_FACE('',(#854),#865,.T.);
#854 = FACE_BOUND('',#855,.F.);
#855 = EDGE_LOOP('',(#856,#862,#863,#864));
#856 = ORIENTED_EDGE('',*,*,#857,.T.);
#857 = EDGE_CURVE('',#256,#391,#858,.T.);
#858 = LINE('',#859,#860);
#859 = CARTESIAN_POINT('',(12.,-9.798246566861,-1.5));
#860 = VECTOR('',#861,1.);
#861 = DIRECTION('',(0.,0.,1.));
#862 = ORIENTED_EDGE('',*,*,#398,.T.);
#863 = ORIENTED_EDGE('',*,*,#842,.F.);
#864 = ORIENTED_EDGE('',*,*,#263,.F.);
#865 = CYLINDRICAL_SURFACE('',#866,3.38);
#866 = AXIS2_PLACEMENT_3D('',#867,#868,#869);
#867 = CARTESIAN_POINT('',(8.62,-9.798246566861,-1.5));
#868 = DIRECTION('',(-0.,-0.,-1.));
#869 = DIRECTION('',(1.,0.,0.));
#870 = ADVANCED_FACE('',(#871),#882,.T.);
#871 = FACE_BOUND('',#872,.T.);
#872 = EDGE_LOOP('',(#873,#874,#875,#881));
#873 = ORIENTED_EDGE('',*,*,#857,.T.);
#874 = ORIENTED_EDGE('',*,*,#390,.T.);
#875 = ORIENTED_EDGE('',*,*,#876,.F.);
#876 = EDGE_CURVE('',#247,#382,#877,.T.);
#877 = LINE('',#878,#879);
#878 = CARTESIAN_POINT('',(12.,-11.26,-1.5));
#879 = VECTOR('',#880,1.);
#880 = DIRECTION('',(0.,0.,1.));
#881 = ORIENTED_EDGE('',*,*,#255,.F.);
#882 = PLANE('',#883);
#883 = AXIS2_PLACEMENT_3D('',#884,#885,#886);
#884 = CARTESIAN_POINT('',(12.,-9.798246566861,-1.5));
#885 = DIRECTION('',(1.,0.,0.));
#886 = DIRECTION('',(0.,-1.,0.));
#887 = ADVANCED_FACE('',(#888),#899,.T.);
#888 = FACE_BOUND('',#889,.F.);
#889 = EDGE_LOOP('',(#890,#896,#897,#898));
#890 = ORIENTED_EDGE('',*,*,#891,.T.);
#891 = EDGE_CURVE('',#239,#374,#892,.T.);
#892 = LINE('',#893,#894);
#893 = CARTESIAN_POINT('',(11.2,-12.06,-1.5));
#894 = VECTOR('',#895,1.);
#895 = DIRECTION('',(0.,0.,1.));
#896 = ORIENTED_EDGE('',*,*,#381,.T.);
#897 = ORIENTED_EDGE('',*,*,#876,.F.);
#898 = ORIENTED_EDGE('',*,*,#246,.F.);
#899 = CYLINDRICAL_SURFACE('',#900,0.8);
#900 = AXIS2_PLACEMENT_3D('',#901,#902,#903);
#901 = CARTESIAN_POINT('',(11.2,-11.26,-1.5));
#902 = DIRECTION('',(-0.,-0.,-1.));
#903 = DIRECTION('',(1.,0.,0.));
#904 = ADVANCED_FACE('',(#905),#916,.T.);
#905 = FACE_BOUND('',#906,.T.);
#906 = EDGE_LOOP('',(#907,#908,#909,#915));
#907 = ORIENTED_EDGE('',*,*,#891,.T.);
#908 = ORIENTED_EDGE('',*,*,#373,.T.);
#909 = ORIENTED_EDGE('',*,*,#910,.F.);
#910 = EDGE_CURVE('',#230,#365,#911,.T.);
#911 = LINE('',#912,#913);
#912 = CARTESIAN_POINT('',(9.8,-12.06,-1.5));
#913 = VECTOR('',#914,1.);
#914 = DIRECTION('',(0.,0.,1.));
#915 = ORIENTED_EDGE('',*,*,#238,.F.);
#916 = PLANE('',#917);
#917 = AXIS2_PLACEMENT_3D('',#918,#919,#920);
#918 = CARTESIAN_POINT('',(11.2,-12.06,-1.5));
#919 = DIRECTION('',(0.,-1.,0.));
#920 = DIRECTION('',(-1.,0.,0.));
#921 = ADVANCED_FACE('',(#922),#928,.T.);
#922 = FACE_BOUND('',#923,.F.);
#923 = EDGE_LOOP('',(#924,#925,#926,#927));
#924 = ORIENTED_EDGE('',*,*,#777,.T.);
#925 = ORIENTED_EDGE('',*,*,#364,.T.);
#926 = ORIENTED_EDGE('',*,*,#910,.F.);
#927 = ORIENTED_EDGE('',*,*,#229,.F.);
#928 = CYLINDRICAL_SURFACE('',#929,0.8);
#929 = AXIS2_PLACEMENT_3D('',#930,#931,#932);
#930 = CARTESIAN_POINT('',(9.8,-11.26,-1.5));
#931 = DIRECTION('',(-0.,-0.,-1.));
#932 = DIRECTION('',(1.,0.,0.));
#933 = ADVANCED_FACE('',(#934),#945,.F.);
#934 = FACE_BOUND('',#935,.T.);
#935 = EDGE_LOOP('',(#936,#942,#943,#944));
#936 = ORIENTED_EDGE('',*,*,#937,.T.);
#937 = EDGE_CURVE('',#314,#449,#938,.T.);
#938 = LINE('',#939,#940);
#939 = CARTESIAN_POINT('',(11.,-10.56,-1.5));
#940 = VECTOR('',#941,1.);
#941 = DIRECTION('',(0.,0.,1.));
#942 = ORIENTED_EDGE('',*,*,#448,.T.);
#943 = ORIENTED_EDGE('',*,*,#937,.F.);
#944 = ORIENTED_EDGE('',*,*,#313,.F.);
#945 = CYLINDRICAL_SURFACE('',#946,0.5);
#946 = AXIS2_PLACEMENT_3D('',#947,#948,#949);
#947 = CARTESIAN_POINT('',(10.5,-10.56,-1.5));
#948 = DIRECTION('',(-0.,-0.,-1.));
#949 = DIRECTION('',(1.,0.,0.));
#950 = ADVANCED_FACE('',(#951),#970,.F.);
#951 = FACE_BOUND('',#952,.F.);
#952 = EDGE_LOOP('',(#953,#961,#968,#969));
#953 = ORIENTED_EDGE('',*,*,#954,.T.);
#954 = EDGE_CURVE('',#527,#955,#957,.T.);
#955 = VERTEX_POINT('',#956);
#956 = CARTESIAN_POINT('',(2.4,-2.45,0.));
#957 = LINE('',#958,#959);
#958 = CARTESIAN_POINT('',(0.,-2.45,0.));
#959 = VECTOR('',#960,1.);
#960 = DIRECTION('',(1.,0.,0.));
#961 = ORIENTED_EDGE('',*,*,#962,.T.);
#962 = EDGE_CURVE('',#955,#955,#963,.T.);
#963 = CIRCLE('',#964,2.45);
#964 = AXIS2_PLACEMENT_3D('',#965,#966,#967);
#965 = CARTESIAN_POINT('',(2.4,0.,0.));
#966 = DIRECTION('',(-1.,0.,0.));
#967 = DIRECTION('',(0.,-1.,0.));
#968 = ORIENTED_EDGE('',*,*,#954,.F.);
#969 = ORIENTED_EDGE('',*,*,#526,.F.);
#970 = CYLINDRICAL_SURFACE('',#971,2.45);
#971 = AXIS2_PLACEMENT_3D('',#972,#973,#974);
#972 = CARTESIAN_POINT('',(0.,0.,0.));
#973 = DIRECTION('',(-1.,0.,0.));
#974 = DIRECTION('',(0.,-1.,0.));
#975 = ADVANCED_FACE('',(#976),#1011,.T.);
#976 = FACE_BOUND('',#977,.T.);
#977 = EDGE_LOOP('',(#978,#979,#987,#994,#995,#996,#1003,#1004));
#978 = ORIENTED_EDGE('',*,*,#603,.F.);
#979 = ORIENTED_EDGE('',*,*,#980,.T.);
#980 = EDGE_CURVE('',#604,#981,#983,.T.);
#981 = VERTEX_POINT('',#982);
#982 = CARTESIAN_POINT('',(9.,0.,-7.));
#983 = LINE('',#984,#985);
#984 = CARTESIAN_POINT('',(9.,0.,-4.8));
#985 = VECTOR('',#986,1.);
#986 = DIRECTION('',(-0.,-0.,-1.));
#987 = ORIENTED_EDGE('',*,*,#988,.T.);
#988 = EDGE_CURVE('',#981,#981,#989,.T.);
#989 = CIRCLE('',#990,1.5);
#990 = AXIS2_PLACEMENT_3D('',#991,#992,#993);
#991 = CARTESIAN_POINT('',(7.5,0.,-7.));
#992 = DIRECTION('',(0.,0.,1.));
#993 = DIRECTION('',(1.,0.,0.));
#994 = ORIENTED_EDGE('',*,*,#980,.F.);
#995 = ORIENTED_EDGE('',*,*,#624,.F.);
#996 = ORIENTED_EDGE('',*,*,#997,.F.);
#997 = EDGE_CURVE('',#644,#625,#998,.T.);
#998 = CIRCLE('',#999,1.5);
#999 = AXIS2_PLACEMENT_3D('',#1000,#1001,#1002);
#1000 = CARTESIAN_POINT('',(7.5,0.,-4.8));
#1001 = DIRECTION('',(0.,0.,1.));
#1002 = DIRECTION('',(1.,0.,0.));
#1003 = ORIENTED_EDGE('',*,*,#651,.F.);
#1004 = ORIENTED_EDGE('',*,*,#1005,.F.);
#1005 = EDGE_CURVE('',#606,#652,#1006,.T.);
#1006 = CIRCLE('',#1007,1.5);
#1007 = AXIS2_PLACEMENT_3D('',#1008,#1009,#1010);
#1008 = CARTESIAN_POINT('',(7.5,0.,-4.8));
#1009 = DIRECTION('',(0.,0.,1.));
#1010 = DIRECTION('',(1.,0.,0.));
#1011 = CYLINDRICAL_SURFACE('',#1012,1.5);
#1012 = AXIS2_PLACEMENT_3D('',#1013,#1014,#1015);
#1013 = CARTESIAN_POINT('',(7.5,0.,-4.8));
#1014 = DIRECTION('',(0.,0.,1.));
#1015 = DIRECTION('',(1.,0.,0.));
#1016 = ADVANCED_FACE('',(#1017),#1021,.F.);
#1017 = FACE_BOUND('',#1018,.T.);
#1018 = EDGE_LOOP('',(#1019,#1020));
#1019 = ORIENTED_EDGE('',*,*,#679,.F.);
#1020 = ORIENTED_EDGE('',*,*,#1005,.T.);
#1021 = PLANE('',#1022);
#1022 = AXIS2_PLACEMENT_3D('',#1023,#1024,#1025);
#1023 = CARTESIAN_POINT('',(7.5,-4.255667768225E-18,-4.8));
#1024 = DIRECTION('',(-0.,-0.,-1.));
#1025 = DIRECTION('',(-1.,-0.,-0.));
#1026 = ADVANCED_FACE('',(#1027),#1031,.F.);
#1027 = FACE_BOUND('',#1028,.T.);
#1028 = EDGE_LOOP('',(#1029,#1030));
#1029 = ORIENTED_EDGE('',*,*,#997,.T.);
#1030 = ORIENTED_EDGE('',*,*,#643,.T.);
#1031 = PLANE('',#1032);
#1032 = AXIS2_PLACEMENT_3D('',#1033,#1034,#1035);
#1033 = CARTESIAN_POINT('',(7.5,-4.255667768225E-18,-4.8));
#1034 = DIRECTION('',(-0.,-0.,-1.));
#1035 = DIRECTION('',(-1.,-0.,-0.));
#1036 = ADVANCED_FACE('',(#1037),#1072,.T.);
#1037 = FACE_BOUND('',#1038,.F.);
#1038 = EDGE_LOOP('',(#1039,#1040,#1048,#1055,#1056,#1057,#1064,#1065));
#1039 = ORIENTED_EDGE('',*,*,#744,.F.);
#1040 = ORIENTED_EDGE('',*,*,#1041,.T.);
#1041 = EDGE_CURVE('',#726,#1042,#1044,.T.);
#1042 = VERTEX_POINT('',#1043);
#1043 = CARTESIAN_POINT('',(9.,0.,7.));
#1044 = LINE('',#1045,#1046);
#1045 = CARTESIAN_POINT('',(9.,0.,4.8));
#1046 = VECTOR('',#1047,1.);
#1047 = DIRECTION('',(0.,0.,1.));
#1048 = ORIENTED_EDGE('',*,*,#1049,.T.);
#1049 = EDGE_CURVE('',#1042,#1042,#1050,.T.);
#1050 = CIRCLE('',#1051,1.5);
#1051 = AXIS2_PLACEMENT_3D('',#1052,#1053,#1054);
#1052 = CARTESIAN_POINT('',(7.5,0.,7.));
#1053 = DIRECTION('',(0.,0.,1.));
#1054 = DIRECTION('',(1.,0.,0.));
#1055 = ORIENTED_EDGE('',*,*,#1041,.F.);
#1056 = ORIENTED_EDGE('',*,*,#725,.F.);
#1057 = ORIENTED_EDGE('',*,*,#1058,.F.);
#1058 = EDGE_CURVE('',#690,#718,#1059,.T.);
#1059 = CIRCLE('',#1060,1.5);
#1060 = AXIS2_PLACEMENT_3D('',#1061,#1062,#1063);
#1061 = CARTESIAN_POINT('',(7.5,0.,4.8));
#1062 = DIRECTION('',(0.,0.,1.));
#1063 = DIRECTION('',(1.,0.,0.));
#1064 = ORIENTED_EDGE('',*,*,#687,.F.);
#1065 = ORIENTED_EDGE('',*,*,#1066,.F.);
#1066 = EDGE_CURVE('',#745,#688,#1067,.T.);
#1067 = CIRCLE('',#1068,1.5);
#1068 = AXIS2_PLACEMENT_3D('',#1069,#1070,#1071);
#1069 = CARTESIAN_POINT('',(7.5,0.,4.8));
#1070 = DIRECTION('',(0.,0.,1.));
#1071 = DIRECTION('',(1.,0.,0.));
#1072 = CYLINDRICAL_SURFACE('',#1073,1.5);
#1073 = AXIS2_PLACEMENT_3D('',#1074,#1075,#1076);
#1074 = CARTESIAN_POINT('',(7.5,0.,4.8));
#1075 = DIRECTION('',(-0.,-0.,-1.));
#1076 = DIRECTION('',(1.,0.,0.));
#1077 = ADVANCED_FACE('',(#1078),#1082,.F.);
#1078 = FACE_BOUND('',#1079,.F.);
#1079 = EDGE_LOOP('',(#1080,#1081));
#1080 = ORIENTED_EDGE('',*,*,#763,.F.);
#1081 = ORIENTED_EDGE('',*,*,#1066,.T.);
#1082 = PLANE('',#1083);
#1083 = AXIS2_PLACEMENT_3D('',#1084,#1085,#1086);
#1084 = CARTESIAN_POINT('',(7.5,-4.255667768225E-18,4.8));
#1085 = DIRECTION('',(0.,0.,1.));
#1086 = DIRECTION('',(1.,0.,0.));
#1087 = ADVANCED_FACE('',(#1088),#1092,.F.);
#1088 = FACE_BOUND('',#1089,.F.);
#1089 = EDGE_LOOP('',(#1090,#1091));
#1090 = ORIENTED_EDGE('',*,*,#1058,.T.);
#1091 = ORIENTED_EDGE('',*,*,#717,.T.);
#1092 = PLANE('',#1093);
#1093 = AXIS2_PLACEMENT_3D('',#1094,#1095,#1096);
#1094 = CARTESIAN_POINT('',(7.5,-4.255667768225E-18,4.8));
#1095 = DIRECTION('',(0.,0.,1.));
#1096 = DIRECTION('',(1.,0.,0.));
#1097 = ADVANCED_FACE('',(#1098),#1117,.F.);
#1098 = FACE_BOUND('',#1099,.F.);
#1099 = EDGE_LOOP('',(#1100,#1101,#1109,#1116));
#1100 = ORIENTED_EDGE('',*,*,#823,.F.);
#1101 = ORIENTED_EDGE('',*,*,#1102,.T.);
#1102 = EDGE_CURVE('',#824,#1103,#1105,.T.);
#1103 = VERTEX_POINT('',#1104);
#1104 = CARTESIAN_POINT('',(2.4,1.05,0.));
#1105 = LINE('',#1106,#1107);
#1106 = CARTESIAN_POINT('',(10.,1.05,0.));
#1107 = VECTOR('',#1108,1.);
#1108 = DIRECTION('',(-1.,-0.,-0.));
#1109 = ORIENTED_EDGE('',*,*,#1110,.T.);
#1110 = EDGE_CURVE('',#1103,#1103,#1111,.T.);
#1111 = CIRCLE('',#1112,1.05);
#1112 = AXIS2_PLACEMENT_3D('',#1113,#1114,#1115);
#1113 = CARTESIAN_POINT('',(2.4,0.,0.));
#1114 = DIRECTION('',(1.,0.,0.));
#1115 = DIRECTION('',(0.,1.,0.));
#1116 = ORIENTED_EDGE('',*,*,#1102,.F.);
#1117 = CYLINDRICAL_SURFACE('',#1118,1.05);
#1118 = AXIS2_PLACEMENT_3D('',#1119,#1120,#1121);
#1119 = CARTESIAN_POINT('',(10.,0.,0.));
#1120 = DIRECTION('',(1.,0.,0.));
#1121 = DIRECTION('',(0.,1.,0.));
#1122 = ADVANCED_FACE('',(#1123,#1126),#1129,.F.);
#1123 = FACE_BOUND('',#1124,.F.);
#1124 = EDGE_LOOP('',(#1125));
#1125 = ORIENTED_EDGE('',*,*,#962,.F.);
#1126 = FACE_BOUND('',#1127,.F.);
#1127 = EDGE_LOOP('',(#1128));
#1128 = ORIENTED_EDGE('',*,*,#1110,.F.);
#1129 = PLANE('',#1130);
#1130 = AXIS2_PLACEMENT_3D('',#1131,#1132,#1133);
#1131 = CARTESIAN_POINT('',(2.4,1.39534707402E-16,1.790565928736E-16));
#1132 = DIRECTION('',(1.,0.,0.));
#1133 = DIRECTION('',(0.,0.,1.));
#1134 = ADVANCED_FACE('',(#1135),#1138,.T.);
#1135 = FACE_BOUND('',#1136,.F.);
#1136 = EDGE_LOOP('',(#1137));
#1137 = ORIENTED_EDGE('',*,*,#988,.T.);
#1138 = PLANE('',#1139);
#1139 = AXIS2_PLACEMENT_3D('',#1140,#1141,#1142);
#1140 = CARTESIAN_POINT('',(7.5,-4.255667768225E-18,-7.));
#1141 = DIRECTION('',(-0.,-0.,-1.));
#1142 = DIRECTION('',(-1.,-0.,-0.));
#1143 = ADVANCED_FACE('',(#1144),#1147,.T.);
#1144 = FACE_BOUND('',#1145,.T.);
#1145 = EDGE_LOOP('',(#1146));
#1146 = ORIENTED_EDGE('',*,*,#1049,.T.);
#1147 = PLANE('',#1148);
#1148 = AXIS2_PLACEMENT_3D('',#1149,#1150,#1151);
#1149 = CARTESIAN_POINT('',(7.5,-4.255667768225E-18,7.));
#1150 = DIRECTION('',(0.,0.,1.));
#1151 = DIRECTION('',(1.,0.,0.));
#1152 = ( GEOMETRIC_REPRESENTATION_CONTEXT(3) 
GLOBAL_UNCERTAINTY_ASSIGNED_CONTEXT((#1156)) 
GLOBAL_UNIT_ASSIGNED_CONTEXT((#1153,#1154,#1155)) REPRESENTATION_CONTEXT
('Context #1','3D Context with UNIT and UNCERTAINTY') );
#1153 = ( LENGTH_UNIT() NAMED_UNIT(*) SI_UNIT(.MILLI.,.METRE.) );
#1154 = ( NAMED_UNIT(*) PLANE_ANGLE_UNIT() SI_UNIT($,.RADIAN.) );
#1155 = ( NAMED_UNIT(*) SI_UNIT($,.STERADIAN.) SOLID_ANGLE_UNIT() );
#1156 = UNCERTAINTY_MEASURE_WITH_UNIT(LENGTH_MEASURE(1.E-07),#1153,
  'distance_accuracy_value','confusion accuracy');
#1157 = PRODUCT_RELATED_PRODUCT_CATEGORY('part',$,(#7));
#1158 = MECHANICAL_DESIGN_GEOMETRIC_PRESENTATION_REPRESENTATION('',(
    #1159),#1152);
#1159 = STYLED_ITEM('color',(#1160),#15);
#1160 = PRESENTATION_STYLE_ASSIGNMENT((#1161,#1167));
#1161 = SURFACE_STYLE_USAGE(.BOTH.,#1162);
#1162 = SURFACE_SIDE_STYLE('',(#1163));
#1163 = SURFACE_STYLE_FILL_AREA(#1164);
#1164 = FILL_AREA_STYLE('',(#1165));
#1165 = FILL_AREA_STYLE_COLOUR('',#1166);
#1166 = DRAUGHTING_PRE_DEFINED_COLOUR('blue');
#1167 = CURVE_STYLE('',#1168,POSITIVE_LENGTH_MEASURE(0.1),#1169);
#1168 = DRAUGHTING_PRE_DEFINED_CURVE_FONT('continuous');
#1169 = COLOUR_RGB('',9.803921802644E-02,9.803921802644E-02,
  9.803921802644E-02);
ENDSEC;
END-ISO-10303-21;
